<?xml version="1.0" encoding="UTF-8"?>
<!-- Generated by Pixelmator Pro 3.8 -->
<svg width="4000" height="3000" viewBox="0 0 4000 3000" xmlns="http://www.w3.org/2000/svg">
    <path id="26-1" fill="#874427" stroke="none" d="M 2500 0 L 2600 0 L 2600 100 L 2500 100 Z"/>
    <path id="27-1" fill="#874427" stroke="none" d="M 2600 0 L 2700 0 L 2700 100 L 2600 100 Z"/>
    <path id="28-1" fill="#874427" stroke="none" d="M 2700 0 L 2800 0 L 2800 100 L 2700 100 Z"/>
    <path id="24-2" fill="#874427" stroke="none" d="M 2300 100 L 2400 100 L 2400 200 L 2300 200 Z"/>
    <path id="25-2" fill="#874427" stroke="none" d="M 2400 100 L 2500 100 L 2500 200 L 2400 200 Z"/>
    <path id="26-2" fill="#ffb23a" stroke="none" d="M 2500 100 L 2600 100 L 2600 200 L 2500 200 Z"/>
    <path id="27-2" fill="#ffb23a" stroke="none" d="M 2600 100 L 2700 100 L 2700 200 L 2600 200 Z"/>
    <path id="28-2" fill="#ffb23a" stroke="none" d="M 2700 100 L 2800 100 L 2800 200 L 2700 200 Z"/>
    <path id="29-2" fill="#874427" stroke="none" d="M 2800 100 L 2900 100 L 2900 200 L 2800 200 Z"/>
    <path id="30-2" fill="#874427" stroke="none" d="M 2900 100 L 3000 100 L 3000 200 L 2900 200 Z"/>
    <path id="23-3" fill="#874427" stroke="none" d="M 2200 200 L 2300 200 L 2300 300 L 2200 300 Z"/>
    <path id="24-3" fill="#ffb23a" stroke="none" d="M 2300 200 L 2400 200 L 2400 300 L 2300 300 Z"/>
    <path id="25-3" fill="#ffffd3" stroke="none" d="M 2400 200 L 2500 200 L 2500 300 L 2400 300 Z"/>
    <path id="26-3" fill="#ffffd3" stroke="none" d="M 2500 200 L 2600 200 L 2600 300 L 2500 300 Z"/>
    <path id="27-3" fill="#ffd750" stroke="none" d="M 2600 200 L 2700 200 L 2700 300 L 2600 300 Z"/>
    <path id="28-3" fill="#ffffd3" stroke="none" d="M 2700 200 L 2800 200 L 2800 300 L 2700 300 Z"/>
    <path id="29-3" fill="#fdab28" stroke="none" d="M 2800 200 L 2900 200 L 2900 300 L 2800 300 Z"/>
    <path id="30-3" fill="#ffb23a" stroke="none" d="M 2900 200 L 3000 200 L 3000 300 L 2900 300 Z"/>
    <path id="31-3" fill="#30120b" stroke="none" d="M 3000 200 L 3100 200 L 3100 300 L 3000 300 Z"/>
    <path id="32-3" fill="#612b15" stroke="none" d="M 3100 200 L 3200 200 L 3200 300 L 3100 300 Z"/>
    <path id="33-3" fill="#612b15" stroke="none" d="M 3200 200 L 3300 200 L 3300 300 L 3200 300 Z"/>
    <path id="22-4" fill="#874427" stroke="none" d="M 2100 300 L 2200 300 L 2200 400 L 2100 400 Z"/>
    <path id="23-4" fill="#ffe37c" stroke="none" d="M 2200 300 L 2300 300 L 2300 400 L 2200 400 Z"/>
    <path id="24-4" fill="#ffffd3" stroke="none" d="M 2300 300 L 2400 300 L 2400 400 L 2300 400 Z"/>
    <path id="25-4" fill="#ffffd3" stroke="none" d="M 2400 300 L 2500 300 L 2500 400 L 2400 400 Z"/>
    <path id="26-4" fill="#ffd750" stroke="none" d="M 2500 300 L 2600 300 L 2600 400 L 2500 400 Z"/>
    <path id="27-4" fill="#ffffd3" stroke="none" d="M 2600 300 L 2700 300 L 2700 400 L 2600 400 Z"/>
    <path id="28-4" fill="#ffffd3" stroke="none" d="M 2700 300 L 2800 300 L 2800 400 L 2700 400 Z"/>
    <path id="29-4" fill="#ffb23a" stroke="none" d="M 2800 300 L 2900 300 L 2900 400 L 2800 400 Z"/>
    <path id="30-4" fill="#f5771f" stroke="none" d="M 2900 300 L 3000 300 L 3000 400 L 2900 400 Z"/>
    <path id="31-4" fill="#30120b" stroke="none" d="M 3000 300 L 3100 300 L 3100 400 L 3000 400 Z"/>
    <path id="32-4" fill="#ffbf53" stroke="none" d="M 3100 300 L 3200 300 L 3200 400 L 3100 400 Z"/>
    <path id="33-4" fill="#ffffdc" stroke="none" d="M 3200 300 L 3300 300 L 3300 400 L 3200 400 Z"/>
    <path id="34-4" fill="#612b15" stroke="none" d="M 3300 300 L 3400 300 L 3400 400 L 3300 400 Z"/>
    <path id="35-4" fill="#612b15" stroke="none" d="M 3400 300 L 3500 300 L 3500 400 L 3400 400 Z"/>
    <path id="21-5" fill="#874427" stroke="none" d="M 2000 400 L 2100 400 L 2100 500 L 2000 500 Z"/>
    <path id="22-5" fill="#ffe37c" stroke="none" d="M 2100 400 L 2200 400 L 2200 500 L 2100 500 Z"/>
    <path id="23-5" fill="#ffffd3" stroke="none" d="M 2200 400 L 2300 400 L 2300 500 L 2200 500 Z"/>
    <path id="24-5" fill="#ffffd3" stroke="none" d="M 2300 400 L 2400 400 L 2400 500 L 2300 500 Z"/>
    <path id="25-5" fill="#ffffd3" stroke="none" d="M 2400 400 L 2500 400 L 2500 500 L 2400 500 Z"/>
    <path id="26-5" fill="#ffffd3" stroke="none" d="M 2500 400 L 2600 400 L 2600 500 L 2500 500 Z"/>
    <path id="27-5" fill="#ffffd3" stroke="none" d="M 2600 400 L 2700 400 L 2700 500 L 2600 500 Z"/>
    <path id="28-5" fill="#ffd750" stroke="none" d="M 2700 400 L 2800 400 L 2800 500 L 2700 500 Z"/>
    <path id="29-5" fill="#ffb23a" stroke="none" d="M 2800 400 L 2900 400 L 2900 500 L 2800 500 Z"/>
    <path id="30-5" fill="#f5771f" stroke="none" d="M 2900 400 L 3000 400 L 3000 500 L 2900 500 Z"/>
    <path id="31-5" fill="#30120b" stroke="none" d="M 3000 400 L 3100 400 L 3100 500 L 3000 500 Z"/>
    <path id="32-5" fill="#ffbf53" stroke="none" d="M 3100 400 L 3200 400 L 3200 500 L 3100 500 Z"/>
    <path id="33-5" fill="#ffffdc" stroke="none" d="M 3200 400 L 3300 400 L 3300 500 L 3200 500 Z"/>
    <path id="34-5" fill="#ffffdc" stroke="none" d="M 3300 400 L 3400 400 L 3400 500 L 3300 500 Z"/>
    <path id="35-5" fill="#ffbf53" stroke="none" d="M 3400 400 L 3500 400 L 3500 500 L 3400 500 Z"/>
    <path id="36-5" fill="#612b15" stroke="none" d="M 3500 400 L 3600 400 L 3600 500 L 3500 500 Z"/>
    <path id="20-6" fill="#874427" stroke="none" d="M 1900 500 L 2000 500 L 2000 600 L 1900 600 Z"/>
    <path id="21-6" fill="#ffe37c" stroke="none" d="M 2000 500 L 2100 500 L 2100 600 L 2000 600 Z"/>
    <path id="22-6" fill="#ffffd3" stroke="none" d="M 2100 500 L 2200 500 L 2200 600 L 2100 600 Z"/>
    <path id="23-6" fill="#ffffd3" stroke="none" d="M 2200 500 L 2300 500 L 2300 600 L 2200 600 Z"/>
    <path id="24-6" fill="#ffd750" stroke="none" d="M 2300 500 L 2400 500 L 2400 600 L 2300 600 Z"/>
    <path id="25-6" fill="#ffffd3" stroke="none" d="M 2400 500 L 2500 500 L 2500 600 L 2400 600 Z"/>
    <path id="26-6" fill="#ffffd3" stroke="none" d="M 2500 500 L 2600 500 L 2600 600 L 2500 600 Z"/>
    <path id="27-6" fill="#ffd750" stroke="none" d="M 2600 500 L 2700 500 L 2700 600 L 2600 600 Z"/>
    <path id="28-6" fill="#ffffd3" stroke="none" d="M 2700 500 L 2800 500 L 2800 600 L 2700 600 Z"/>
    <path id="29-6" fill="#f5771f" stroke="none" d="M 2800 500 L 2900 500 L 2900 600 L 2800 600 Z"/>
    <path id="30-6" fill="#cd4a13" stroke="none" d="M 2900 500 L 3000 500 L 3000 600 L 2900 600 Z"/>
    <path id="31-6" fill="#30120b" stroke="none" d="M 3000 500 L 3100 500 L 3100 600 L 3000 600 Z"/>
    <path id="32-6" fill="#ffbf53" stroke="none" d="M 3100 500 L 3200 500 L 3200 600 L 3100 600 Z"/>
    <path id="33-6" fill="#0b0b0b" stroke="none" d="M 3200 500 L 3300 500 L 3300 600 L 3200 600 Z"/>
    <path id="34-6" fill="#923d44" stroke="none" d="M 3300 500 L 3400 500 L 3400 600 L 3300 600 Z"/>
    <path id="35-6" fill="#ffffdc" stroke="none" d="M 3400 500 L 3500 500 L 3500 600 L 3400 600 Z"/>
    <path id="36-6" fill="#ffea91" stroke="none" d="M 3500 500 L 3600 500 L 3600 600 L 3500 600 Z"/>
    <path id="37-6" fill="#612b15" stroke="none" d="M 3600 500 L 3700 500 L 3700 600 L 3600 600 Z"/>
    <path id="18-7" fill="#874427" stroke="none" d="M 1700 600 L 1800 600 L 1800 700 L 1700 700 Z"/>
    <path id="19-7" fill="#874427" stroke="none" d="M 1800 600 L 1900 600 L 1900 700 L 1800 700 Z"/>
    <path id="20-7" fill="#ffe37c" stroke="none" d="M 1900 600 L 2000 600 L 2000 700 L 1900 700 Z"/>
    <path id="21-7" fill="#ffffd3" stroke="none" d="M 2000 600 L 2100 600 L 2100 700 L 2000 700 Z"/>
    <path id="22-7" fill="#ffd750" stroke="none" d="M 2100 600 L 2200 600 L 2200 700 L 2100 700 Z"/>
    <path id="23-7" fill="#ffffd3" stroke="none" d="M 2200 600 L 2300 600 L 2300 700 L 2200 700 Z"/>
    <path id="24-7" fill="#ffffd3" stroke="none" d="M 2300 600 L 2400 600 L 2400 700 L 2300 700 Z"/>
    <path id="25-7" fill="#ffffd3" stroke="none" d="M 2400 600 L 2500 600 L 2500 700 L 2400 700 Z"/>
    <path id="26-7" fill="#ffd750" stroke="none" d="M 2500 600 L 2600 600 L 2600 700 L 2500 700 Z"/>
    <path id="27-7" fill="#ffffd3" stroke="none" d="M 2600 600 L 2700 600 L 2700 700 L 2600 700 Z"/>
    <path id="28-7" fill="#ffb23a" stroke="none" d="M 2700 600 L 2800 600 L 2800 700 L 2700 700 Z"/>
    <path id="29-7" fill="#f5771f" stroke="none" d="M 2800 600 L 2900 600 L 2900 700 L 2800 700 Z"/>
    <path id="30-7" fill="#30120b" stroke="none" d="M 2900 600 L 3000 600 L 3000 700 L 2900 700 Z"/>
    <path id="31-7" fill="#ffbf53" stroke="none" d="M 3000 600 L 3100 600 L 3100 700 L 3000 700 Z"/>
    <path id="32-7" fill="#ffea91" stroke="none" d="M 3100 600 L 3200 600 L 3200 700 L 3100 700 Z"/>
    <path id="33-7" fill="#ffffdc" stroke="none" d="M 3200 600 L 3300 600 L 3300 700 L 3200 700 Z"/>
    <path id="34-7" fill="#0b0b0b" stroke="none" d="M 3300 600 L 3400 600 L 3400 700 L 3300 700 Z"/>
    <path id="35-7" fill="#ffbf53" stroke="none" d="M 3400 600 L 3500 600 L 3500 700 L 3400 700 Z"/>
    <path id="36-7" fill="#ffffdc" stroke="none" d="M 3500 600 L 3600 600 L 3600 700 L 3500 700 Z"/>
    <path id="37-7" fill="#ffffdc" stroke="none" d="M 3600 600 L 3700 600 L 3700 700 L 3600 700 Z"/>
    <path id="38-7" fill="#612b15" stroke="none" d="M 3700 600 L 3800 600 L 3800 700 L 3700 700 Z"/>
    <path id="15-8" fill="#874427" stroke="none" d="M 1400 700 L 1500 700 L 1500 800 L 1400 800 Z"/>
    <path id="16-8" fill="#874427" stroke="none" d="M 1500 700 L 1600 700 L 1600 800 L 1500 800 Z"/>
    <path id="17-8" fill="#874427" stroke="none" d="M 1600 700 L 1700 700 L 1700 800 L 1600 800 Z"/>
    <path id="18-8" fill="#ffe37c" stroke="none" d="M 1700 700 L 1800 700 L 1800 800 L 1700 800 Z"/>
    <path id="19-8" fill="#ffffd3" stroke="none" d="M 1800 700 L 1900 700 L 1900 800 L 1800 800 Z"/>
    <path id="20-8" fill="#ffffd3" stroke="none" d="M 1900 700 L 2000 700 L 2000 800 L 1900 800 Z"/>
    <path id="21-8" fill="#ffffd3" stroke="none" d="M 2000 700 L 2100 700 L 2100 800 L 2000 800 Z"/>
    <path id="22-8" fill="#ffffd3" stroke="none" d="M 2100 700 L 2200 700 L 2200 800 L 2100 800 Z"/>
    <path id="23-8" fill="#ffffd3" stroke="none" d="M 2200 700 L 2300 700 L 2300 800 L 2200 800 Z"/>
    <path id="24-8" fill="#ffd750" stroke="none" d="M 2300 700 L 2400 700 L 2400 800 L 2300 800 Z"/>
    <path id="25-8" fill="#ffffd3" stroke="none" d="M 2400 700 L 2500 700 L 2500 800 L 2400 800 Z"/>
    <path id="26-8" fill="#ffd750" stroke="none" d="M 2500 700 L 2600 700 L 2600 800 L 2500 800 Z"/>
    <path id="27-8" fill="#ffb23a" stroke="none" d="M 2600 700 L 2700 700 L 2700 800 L 2600 800 Z"/>
    <path id="28-8" fill="#f5771f" stroke="none" d="M 2700 700 L 2800 700 L 2800 800 L 2700 800 Z"/>
    <path id="29-8" fill="#cd4a13" stroke="none" d="M 2800 700 L 2900 700 L 2900 800 L 2800 800 Z"/>
    <path id="30-8" fill="#30120b" stroke="none" d="M 2900 700 L 3000 700 L 3000 800 L 2900 800 Z"/>
    <path id="31-8" fill="#ffbf53" stroke="none" d="M 3000 700 L 3100 700 L 3100 800 L 3000 800 Z"/>
    <path id="32-8" fill="#ffea91" stroke="none" d="M 3100 700 L 3200 700 L 3200 800 L 3100 800 Z"/>
    <path id="33-8" fill="#ffea91" stroke="none" d="M 3200 700 L 3300 700 L 3300 800 L 3200 800 Z"/>
    <path id="34-8" fill="#ffffdc" stroke="none" d="M 3300 700 L 3400 700 L 3400 800 L 3300 800 Z"/>
    <path id="35-8" fill="#ffffdc" stroke="none" d="M 3400 700 L 3500 700 L 3500 800 L 3400 800 Z"/>
    <path id="36-8" fill="#4e1419" stroke="none" d="M 3500 700 L 3600 700 L 3600 800 L 3500 800 Z"/>
    <path id="37-8" fill="#923d44" stroke="none" d="M 3600 700 L 3700 700 L 3700 800 L 3600 800 Z"/>
    <path id="38-8" fill="#ffbf53" stroke="none" d="M 3700 700 L 3800 700 L 3800 800 L 3700 800 Z"/>
    <path id="39-8" fill="#612b15" stroke="none" d="M 3800 700 L 3900 700 L 3900 800 L 3800 800 Z"/>
    <path id="12-9" fill="#874427" stroke="none" d="M 1100 800 L 1200 800 L 1200 900 L 1100 900 Z"/>
    <path id="13-9" fill="#874427" stroke="none" d="M 1200 800 L 1300 800 L 1300 900 L 1200 900 Z"/>
    <path id="14-9" fill="#874427" stroke="none" d="M 1300 800 L 1400 800 L 1400 900 L 1300 900 Z"/>
    <path id="15-9" fill="#ffe37c" stroke="none" d="M 1400 800 L 1500 800 L 1500 900 L 1400 900 Z"/>
    <path id="16-9" fill="#ffffd3" stroke="none" d="M 1500 800 L 1600 800 L 1600 900 L 1500 900 Z"/>
    <path id="17-9" fill="#ffffd3" stroke="none" d="M 1600 800 L 1700 800 L 1700 900 L 1600 900 Z"/>
    <path id="18-9" fill="#ffffd3" stroke="none" d="M 1700 800 L 1800 800 L 1800 900 L 1700 900 Z"/>
    <path id="19-9" fill="#ffffd3" stroke="none" d="M 1800 800 L 1900 800 L 1900 900 L 1800 900 Z"/>
    <path id="20-9" fill="#ffffd3" stroke="none" d="M 1900 800 L 2000 800 L 2000 900 L 1900 900 Z"/>
    <path id="21-9" fill="#ffffd3" stroke="none" d="M 2000 800 L 2100 800 L 2100 900 L 2000 900 Z"/>
    <path id="22-9" fill="#ffd750" stroke="none" d="M 2100 800 L 2200 800 L 2200 900 L 2100 900 Z"/>
    <path id="23-9" fill="#ffb23a" stroke="none" d="M 2200 800 L 2300 800 L 2300 900 L 2200 900 Z"/>
    <path id="24-9" fill="#ffd750" stroke="none" d="M 2300 800 L 2400 800 L 2400 900 L 2300 900 Z"/>
    <path id="25-9" fill="#ffb23a" stroke="none" d="M 2400 800 L 2500 800 L 2500 900 L 2400 900 Z"/>
    <path id="26-9" fill="#ffffd3" stroke="none" d="M 2500 800 L 2600 800 L 2600 900 L 2500 900 Z"/>
    <path id="27-9" fill="#f5771f" stroke="none" d="M 2600 800 L 2700 800 L 2700 900 L 2600 900 Z"/>
    <path id="28-9" fill="#cd4a13" stroke="none" d="M 2700 800 L 2800 800 L 2800 900 L 2700 900 Z"/>
    <path id="29-9" fill="#4e1419" stroke="none" d="M 2800 800 L 2900 800 L 2900 900 L 2800 900 Z"/>
    <path id="30-9" fill="#ffffd3" stroke="none" d="M 2900 800 L 3000 800 L 3000 900 L 2900 900 Z"/>
    <path id="31-9" fill="#1f0b0b" stroke="none" d="M 3000 800 L 3100 800 L 3100 900 L 3000 900 Z"/>
    <path id="32-9" fill="#1f0b0b" stroke="none" d="M 3100 800 L 3200 800 L 3200 900 L 3100 900 Z"/>
    <path id="33-9" fill="#ffbf53" stroke="none" d="M 3200 800 L 3300 800 L 3300 900 L 3200 900 Z"/>
    <path id="34-9" fill="#ffea91" stroke="none" d="M 3300 800 L 3400 800 L 3400 900 L 3300 900 Z"/>
    <path id="35-9" fill="#ffea91" stroke="none" d="M 3400 800 L 3500 800 L 3500 900 L 3400 900 Z"/>
    <path id="36-9" fill="#0b0b0b" stroke="none" d="M 3500 800 L 3600 800 L 3600 900 L 3500 900 Z"/>
    <path id="37-9" fill="#4e1419" stroke="none" d="M 3600 800 L 3700 800 L 3700 900 L 3600 900 Z"/>
    <path id="38-9" fill="#ffffdc" stroke="none" d="M 3700 800 L 3800 800 L 3800 900 L 3700 900 Z"/>
    <path id="39-9" fill="#612b15" stroke="none" d="M 3800 800 L 3900 800 L 3900 900 L 3800 900 Z"/>
    <path id="9-10" fill="#874427" stroke="none" d="M 800 900 L 900 900 L 900 1000 L 800 1000 Z"/>
    <path id="10-10" fill="#874427" stroke="none" d="M 900 900 L 1000 900 L 1000 1000 L 900 1000 Z"/>
    <path id="11-10" fill="#874427" stroke="none" d="M 1000 900 L 1100 900 L 1100 1000 L 1000 1000 Z"/>
    <path id="12-10" fill="#ffb23a" stroke="none" d="M 1100 900 L 1200 900 L 1200 1000 L 1100 1000 Z"/>
    <path id="13-10" fill="#ffe37c" stroke="none" d="M 1200 900 L 1300 900 L 1300 1000 L 1200 1000 Z"/>
    <path id="14-10" fill="#ffffd3" stroke="none" d="M 1300 900 L 1400 900 L 1400 1000 L 1300 1000 Z"/>
    <path id="15-10" fill="#ffffd3" stroke="none" d="M 1400 900 L 1500 900 L 1500 1000 L 1400 1000 Z"/>
    <path id="16-10" fill="#ffffd3" stroke="none" d="M 1500 900 L 1600 900 L 1600 1000 L 1500 1000 Z"/>
    <path id="17-10" fill="#ffffd3" stroke="none" d="M 1600 900 L 1700 900 L 1700 1000 L 1600 1000 Z"/>
    <path id="18-10" fill="#ffffd3" stroke="none" d="M 1700 900 L 1800 900 L 1800 1000 L 1700 1000 Z"/>
    <path id="19-10" fill="#ffd750" stroke="none" d="M 1800 900 L 1900 900 L 1900 1000 L 1800 1000 Z"/>
    <path id="20-10" fill="#ffd750" stroke="none" d="M 1900 900 L 2000 900 L 2000 1000 L 1900 1000 Z"/>
    <path id="21-10" fill="#ffffd3" stroke="none" d="M 2000 900 L 2100 900 L 2100 1000 L 2000 1000 Z"/>
    <path id="22-10" fill="#ffb23a" stroke="none" d="M 2100 900 L 2200 900 L 2200 1000 L 2100 1000 Z"/>
    <path id="23-10" fill="#ffd750" stroke="none" d="M 2200 900 L 2300 900 L 2300 1000 L 2200 1000 Z"/>
    <path id="24-10" fill="#ffffd3" stroke="none" d="M 2300 900 L 2400 900 L 2400 1000 L 2300 1000 Z"/>
    <path id="25-10" fill="#ffd750" stroke="none" d="M 2400 900 L 2500 900 L 2500 1000 L 2400 1000 Z"/>
    <path id="26-10" fill="#f5771f" stroke="none" d="M 2500 900 L 2600 900 L 2600 1000 L 2500 1000 Z"/>
    <path id="27-10" fill="#cd4a13" stroke="none" d="M 2600 900 L 2700 900 L 2700 1000 L 2600 1000 Z"/>
    <path id="28-10" fill="#4e1419" stroke="none" d="M 2700 900 L 2800 900 L 2800 1000 L 2700 1000 Z"/>
    <path id="29-10" fill="#ffe37c" stroke="none" d="M 2800 900 L 2900 900 L 2900 1000 L 2800 1000 Z"/>
    <path id="30-10" fill="#ffffd3" stroke="none" d="M 2900 900 L 3000 900 L 3000 1000 L 2900 1000 Z"/>
    <path id="31-10" fill="#ffffd3" stroke="none" d="M 3000 900 L 3100 900 L 3100 1000 L 3000 1000 Z"/>
    <path id="32-10" fill="#fdab28" stroke="none" d="M 3100 900 L 3200 900 L 3200 1000 L 3100 1000 Z"/>
    <path id="33-10" fill="#1f0b0b" stroke="none" d="M 3200 900 L 3300 900 L 3300 1000 L 3200 1000 Z"/>
    <path id="34-10" fill="#1f0b0b" stroke="none" d="M 3300 900 L 3400 900 L 3400 1000 L 3300 1000 Z"/>
    <path id="35-10" fill="#1f0b0b" stroke="none" d="M 3400 900 L 3500 900 L 3500 1000 L 3400 1000 Z"/>
    <path id="36-10" fill="#ffbf53" stroke="none" d="M 3500 900 L 3600 900 L 3600 1000 L 3500 1000 Z"/>
    <path id="37-10" fill="#ffea91" stroke="none" d="M 3600 900 L 3700 900 L 3700 1000 L 3600 1000 Z"/>
    <path id="38-10" fill="#ffffdc" stroke="none" d="M 3700 900 L 3800 900 L 3800 1000 L 3700 1000 Z"/>
    <path id="39-10" fill="#ffea91" stroke="none" d="M 3800 900 L 3900 900 L 3900 1000 L 3800 1000 Z"/>
    <path id="40-10" fill="#612b15" stroke="none" d="M 3900 900 L 4000 900 L 4000 1000 L 3900 1000 Z"/>
    <path id="7-11" fill="#874427" stroke="none" d="M 600 1000 L 700 1000 L 700 1100 L 600 1100 Z"/>
    <path id="8-11" fill="#874427" stroke="none" d="M 700 1000 L 800 1000 L 800 1100 L 700 1100 Z"/>
    <path id="9-11" fill="#ffb23a" stroke="none" d="M 800 1000 L 900 1000 L 900 1100 L 800 1100 Z"/>
    <path id="10-11" fill="#ffffd3" stroke="none" d="M 900 1000 L 1000 1000 L 1000 1100 L 900 1100 Z"/>
    <path id="11-11" fill="#ffffd3" stroke="none" d="M 1000 1000 L 1100 1000 L 1100 1100 L 1000 1100 Z"/>
    <path id="12-11" fill="#ffffd3" stroke="none" d="M 1100 1000 L 1200 1000 L 1200 1100 L 1100 1100 Z"/>
    <path id="13-11" fill="#ffffd3" stroke="none" d="M 1200 1000 L 1300 1000 L 1300 1100 L 1200 1100 Z"/>
    <path id="14-11" fill="#ffffd3" stroke="none" d="M 1300 1000 L 1400 1000 L 1400 1100 L 1300 1100 Z"/>
    <path id="15-11" fill="#ffd750" stroke="none" d="M 1400 1000 L 1500 1000 L 1500 1100 L 1400 1100 Z"/>
    <path id="16-11" fill="#ffffd3" stroke="none" d="M 1500 1000 L 1600 1000 L 1600 1100 L 1500 1100 Z"/>
    <path id="17-11" fill="#ffd750" stroke="none" d="M 1600 1000 L 1700 1000 L 1700 1100 L 1600 1100 Z"/>
    <path id="18-11" fill="#ffffd3" stroke="none" d="M 1700 1000 L 1800 1000 L 1800 1100 L 1700 1100 Z"/>
    <path id="19-11" fill="#ffffd3" stroke="none" d="M 1800 1000 L 1900 1000 L 1900 1100 L 1800 1100 Z"/>
    <path id="20-11" fill="#ffb23a" stroke="none" d="M 1900 1000 L 2000 1000 L 2000 1100 L 1900 1100 Z"/>
    <path id="21-11" fill="#ffb23a" stroke="none" d="M 2000 1000 L 2100 1000 L 2100 1100 L 2000 1100 Z"/>
    <path id="22-11" fill="#ffffd3" stroke="none" d="M 2100 1000 L 2200 1000 L 2200 1100 L 2100 1100 Z"/>
    <path id="23-11" fill="#ffb23a" stroke="none" d="M 2200 1000 L 2300 1000 L 2300 1100 L 2200 1100 Z"/>
    <path id="24-11" fill="#f5771f" stroke="none" d="M 2300 1000 L 2400 1000 L 2400 1100 L 2300 1100 Z"/>
    <path id="25-11" fill="#f5771f" stroke="none" d="M 2400 1000 L 2500 1000 L 2500 1100 L 2400 1100 Z"/>
    <path id="26-11" fill="#cd4a13" stroke="none" d="M 2500 1000 L 2600 1000 L 2600 1100 L 2500 1100 Z"/>
    <path id="27-11" fill="#4e1419" stroke="none" d="M 2600 1000 L 2700 1000 L 2700 1100 L 2600 1100 Z"/>
    <path id="28-11" fill="#ffe37c" stroke="none" d="M 2700 1000 L 2800 1000 L 2800 1100 L 2700 1100 Z"/>
    <path id="29-11" fill="#ffffd3" stroke="none" d="M 2800 1000 L 2900 1000 L 2900 1100 L 2800 1100 Z"/>
    <path id="30-11" fill="#ffffd3" stroke="none" d="M 2900 1000 L 3000 1000 L 3000 1100 L 2900 1100 Z"/>
    <path id="31-11" fill="#ffffd3" stroke="none" d="M 3000 1000 L 3100 1000 L 3100 1100 L 3000 1100 Z"/>
    <path id="32-11" fill="#ffffd3" stroke="none" d="M 3100 1000 L 3200 1000 L 3200 1100 L 3100 1100 Z"/>
    <path id="33-11" fill="#fdab28" stroke="none" d="M 3200 1000 L 3300 1000 L 3300 1100 L 3200 1100 Z"/>
    <path id="34-11" fill="#fdab28" stroke="none" d="M 3300 1000 L 3400 1000 L 3400 1100 L 3300 1100 Z"/>
    <path id="35-11" fill="#cd4a13" stroke="none" d="M 3400 1000 L 3500 1000 L 3500 1100 L 3400 1100 Z"/>
    <path id="36-11" fill="#1f0b0b" stroke="none" d="M 3500 1000 L 3600 1000 L 3600 1100 L 3500 1100 Z"/>
    <path id="37-11" fill="#1f0b0b" stroke="none" d="M 3600 1000 L 3700 1000 L 3700 1100 L 3600 1100 Z"/>
    <path id="38-11" fill="#ffea91" stroke="none" d="M 3700 1000 L 3800 1000 L 3800 1100 L 3700 1100 Z"/>
    <path id="39-11" fill="#ffbf53" stroke="none" d="M 3800 1000 L 3900 1000 L 3900 1100 L 3800 1100 Z"/>
    <path id="40-11" fill="#612b15" stroke="none" d="M 3900 1000 L 4000 1000 L 4000 1100 L 3900 1100 Z"/>
    <path id="6-12" fill="#874427" stroke="none" d="M 500 1100 L 600 1100 L 600 1200 L 500 1200 Z"/>
    <path id="7-12" fill="#ef8417" stroke="none" d="M 600 1100 L 700 1100 L 700 1200 L 600 1200 Z"/>
    <path id="8-12" fill="#ffb23a" stroke="none" d="M 700 1100 L 800 1100 L 800 1200 L 700 1200 Z"/>
    <path id="9-12" fill="#ffb23a" stroke="none" d="M 800 1100 L 900 1100 L 900 1200 L 800 1200 Z"/>
    <path id="10-12" fill="#ffb23a" stroke="none" d="M 900 1100 L 1000 1100 L 1000 1200 L 900 1200 Z"/>
    <path id="11-12" fill="#ffb23a" stroke="none" d="M 1000 1100 L 1100 1100 L 1100 1200 L 1000 1200 Z"/>
    <path id="12-12" fill="#ffb23a" stroke="none" d="M 1100 1100 L 1200 1100 L 1200 1200 L 1100 1200 Z"/>
    <path id="13-12" fill="#ef8417" stroke="none" d="M 1200 1100 L 1300 1100 L 1300 1200 L 1200 1200 Z"/>
    <path id="14-12" fill="#ef8417" stroke="none" d="M 1300 1100 L 1400 1100 L 1400 1200 L 1300 1200 Z"/>
    <path id="15-12" fill="#ffffd3" stroke="none" d="M 1400 1100 L 1500 1100 L 1500 1200 L 1400 1200 Z"/>
    <path id="16-12" fill="#ffffd3" stroke="none" d="M 1500 1100 L 1600 1100 L 1600 1200 L 1500 1200 Z"/>
    <path id="17-12" fill="#ffffd3" stroke="none" d="M 1600 1100 L 1700 1100 L 1700 1200 L 1600 1200 Z"/>
    <path id="18-12" fill="#ffd750" stroke="none" d="M 1700 1100 L 1800 1100 L 1800 1200 L 1700 1200 Z"/>
    <path id="19-12" fill="#ffffd3" stroke="none" d="M 1800 1100 L 1900 1100 L 1900 1200 L 1800 1200 Z"/>
    <path id="20-12" fill="#ffffd3" stroke="none" d="M 1900 1100 L 2000 1100 L 2000 1200 L 1900 1200 Z"/>
    <path id="21-12" fill="#ffd750" stroke="none" d="M 2000 1100 L 2100 1100 L 2100 1200 L 2000 1200 Z"/>
    <path id="22-12" fill="#ffb23a" stroke="none" d="M 2100 1100 L 2200 1100 L 2200 1200 L 2100 1200 Z"/>
    <path id="23-12" fill="#cd4a13" stroke="none" d="M 2200 1100 L 2300 1100 L 2300 1200 L 2200 1200 Z"/>
    <path id="24-12" fill="#cd4a13" stroke="none" d="M 2300 1100 L 2400 1100 L 2400 1200 L 2300 1200 Z"/>
    <path id="25-12" fill="#cd4a13" stroke="none" d="M 2400 1100 L 2500 1100 L 2500 1200 L 2400 1200 Z"/>
    <path id="26-12" fill="#4e1419" stroke="none" d="M 2500 1100 L 2600 1100 L 2600 1200 L 2500 1200 Z"/>
    <path id="27-12" fill="#ffe37c" stroke="none" d="M 2600 1100 L 2700 1100 L 2700 1200 L 2600 1200 Z"/>
    <path id="28-12" fill="#ffffd3" stroke="none" d="M 2700 1100 L 2800 1100 L 2800 1200 L 2700 1200 Z"/>
    <path id="29-12" fill="#ffffd3" stroke="none" d="M 2800 1100 L 2900 1100 L 2900 1200 L 2800 1200 Z"/>
    <path id="30-12" fill="#ffffd3" stroke="none" d="M 2900 1100 L 3000 1100 L 3000 1200 L 2900 1200 Z"/>
    <path id="31-12" fill="#ffd750" stroke="none" d="M 3000 1100 L 3100 1100 L 3100 1200 L 3000 1200 Z"/>
    <path id="32-12" fill="#ffd750" stroke="none" d="M 3100 1100 L 3200 1100 L 3200 1200 L 3100 1200 Z"/>
    <path id="33-12" fill="#ffb23a" stroke="none" d="M 3200 1100 L 3300 1100 L 3300 1200 L 3200 1200 Z"/>
    <path id="34-12" fill="#f5771f" stroke="none" d="M 3300 1100 L 3400 1100 L 3400 1200 L 3300 1200 Z"/>
    <path id="35-12" fill="#fdab28" stroke="none" d="M 3400 1100 L 3500 1100 L 3500 1200 L 3400 1200 Z"/>
    <path id="36-12" fill="#f5771f" stroke="none" d="M 3500 1100 L 3600 1100 L 3600 1200 L 3500 1200 Z"/>
    <path id="37-12" fill="#cd4a13" stroke="none" d="M 3600 1100 L 3700 1100 L 3700 1200 L 3600 1200 Z"/>
    <path id="38-12" fill="#1f0b0b" stroke="none" d="M 3700 1100 L 3800 1100 L 3800 1200 L 3700 1200 Z"/>
    <path id="39-12" fill="#ffbf53" stroke="none" d="M 3800 1100 L 3900 1100 L 3900 1200 L 3800 1200 Z"/>
    <path id="40-12" fill="#612b15" stroke="none" d="M 3900 1100 L 4000 1100 L 4000 1200 L 3900 1200 Z"/>
    <path id="5-13" fill="#874427" stroke="none" d="M 400 1200 L 500 1200 L 500 1300 L 400 1300 Z"/>
    <path id="6-13" fill="#ffb23a" stroke="none" d="M 500 1200 L 600 1200 L 600 1300 L 500 1300 Z"/>
    <path id="7-13" fill="#ffb23a" stroke="none" d="M 600 1200 L 700 1200 L 700 1300 L 600 1300 Z"/>
    <path id="8-13" fill="#30120b" stroke="none" d="M 700 1200 L 800 1200 L 800 1300 L 700 1300 Z"/>
    <path id="9-13" fill="#30120b" stroke="none" d="M 800 1200 L 900 1200 L 900 1300 L 800 1300 Z"/>
    <path id="10-13" fill="#30120b" stroke="none" d="M 900 1200 L 1000 1200 L 1000 1300 L 900 1300 Z"/>
    <path id="11-13" fill="#30120b" stroke="none" d="M 1000 1200 L 1100 1200 L 1100 1300 L 1000 1300 Z"/>
    <path id="12-13" fill="#30120b" stroke="none" d="M 1100 1200 L 1200 1200 L 1200 1300 L 1100 1300 Z"/>
    <path id="13-13" fill="#ffb23a" stroke="none" d="M 1200 1200 L 1300 1200 L 1300 1300 L 1200 1300 Z"/>
    <path id="14-13" fill="#ffb23a" stroke="none" d="M 1300 1200 L 1400 1200 L 1400 1300 L 1300 1300 Z"/>
    <path id="15-13" fill="#ffb23a" stroke="none" d="M 1400 1200 L 1500 1200 L 1500 1300 L 1400 1300 Z"/>
    <path id="16-13" fill="#ffb23a" stroke="none" d="M 1500 1200 L 1600 1200 L 1600 1300 L 1500 1300 Z"/>
    <path id="17-13" fill="#f5771f" stroke="none" d="M 1600 1200 L 1700 1200 L 1700 1300 L 1600 1300 Z"/>
    <path id="18-13" fill="#ffffd3" stroke="none" d="M 1700 1200 L 1800 1200 L 1800 1300 L 1700 1300 Z"/>
    <path id="19-13" fill="#ffb23a" stroke="none" d="M 1800 1200 L 1900 1200 L 1900 1300 L 1800 1300 Z"/>
    <path id="20-13" fill="#f5771f" stroke="none" d="M 1900 1200 L 2000 1200 L 2000 1300 L 1900 1300 Z"/>
    <path id="21-13" fill="#f5771f" stroke="none" d="M 2000 1200 L 2100 1200 L 2100 1300 L 2000 1300 Z"/>
    <path id="22-13" fill="#cd4a13" stroke="none" d="M 2100 1200 L 2200 1200 L 2200 1300 L 2100 1300 Z"/>
    <path id="23-13" fill="#cd4a13" stroke="none" d="M 2200 1200 L 2300 1200 L 2300 1300 L 2200 1300 Z"/>
    <path id="24-13" fill="#4e1419" stroke="none" d="M 2300 1200 L 2400 1200 L 2400 1300 L 2300 1300 Z"/>
    <path id="25-13" fill="#4e1419" stroke="none" d="M 2400 1200 L 2500 1200 L 2500 1300 L 2400 1300 Z"/>
    <path id="26-13" fill="#ffe37c" stroke="none" d="M 2500 1200 L 2600 1200 L 2600 1300 L 2500 1300 Z"/>
    <path id="27-13" fill="#ffffd3" stroke="none" d="M 2600 1200 L 2700 1200 L 2700 1300 L 2600 1300 Z"/>
    <path id="28-13" fill="#ffffd3" stroke="none" d="M 2700 1200 L 2800 1200 L 2800 1300 L 2700 1300 Z"/>
    <path id="29-13" fill="#ffffd3" stroke="none" d="M 2800 1200 L 2900 1200 L 2900 1300 L 2800 1300 Z"/>
    <path id="30-13" fill="#ffd750" stroke="none" d="M 2900 1200 L 3000 1200 L 3000 1300 L 2900 1300 Z"/>
    <path id="31-13" fill="#ffb23a" stroke="none" d="M 3000 1200 L 3100 1200 L 3100 1300 L 3000 1300 Z"/>
    <path id="32-13" fill="#ef8417" stroke="none" d="M 3100 1200 L 3200 1200 L 3200 1300 L 3100 1300 Z"/>
    <path id="33-13" fill="#ffd750" stroke="none" d="M 3200 1200 L 3300 1200 L 3300 1300 L 3200 1300 Z"/>
    <path id="34-13" fill="#fdab28" stroke="none" d="M 3300 1200 L 3400 1200 L 3400 1300 L 3300 1300 Z"/>
    <path id="35-13" fill="#fdab28" stroke="none" d="M 3400 1200 L 3500 1200 L 3500 1300 L 3400 1300 Z"/>
    <path id="36-13" fill="#fdab28" stroke="none" d="M 3500 1200 L 3600 1200 L 3600 1300 L 3500 1300 Z"/>
    <path id="37-13" fill="#f5771f" stroke="none" d="M 3600 1200 L 3700 1200 L 3700 1300 L 3600 1300 Z"/>
    <path id="38-13" fill="#cd4a13" stroke="none" d="M 3700 1200 L 3800 1200 L 3800 1300 L 3700 1300 Z"/>
    <path id="39-13" fill="#1f0b0b" stroke="none" d="M 3800 1200 L 3900 1200 L 3900 1300 L 3800 1300 Z"/>
    <path id="40-13" fill="#612b15" stroke="none" d="M 3900 1200 L 4000 1200 L 4000 1300 L 3900 1300 Z"/>
    <path id="4-14" fill="#874427" stroke="none" d="M 300 1300 L 400 1300 L 400 1400 L 300 1400 Z"/>
    <path id="5-14" fill="#f88d32" stroke="none" d="M 400 1300 L 500 1300 L 500 1400 L 400 1400 Z"/>
    <path id="6-14" fill="#30120d" stroke="none" d="M 500 1300 L 600 1300 L 600 1400 L 500 1400 Z"/>
    <path id="7-14" fill="#30120d" stroke="none" d="M 600 1300 L 700 1300 L 700 1400 L 600 1400 Z"/>
    <path id="8-14" fill="#f88d32" stroke="none" d="M 700 1300 L 800 1300 L 800 1400 L 700 1400 Z"/>
    <path id="9-14" fill="#ffbf53" stroke="none" d="M 800 1300 L 900 1300 L 900 1400 L 800 1400 Z"/>
    <path id="10-14" fill="#ffbf53" stroke="none" d="M 900 1300 L 1000 1300 L 1000 1400 L 900 1400 Z"/>
    <path id="11-14" fill="#ffbf53" stroke="none" d="M 1000 1300 L 1100 1300 L 1100 1400 L 1000 1400 Z"/>
    <path id="12-14" fill="#ffbf53" stroke="none" d="M 1100 1300 L 1200 1300 L 1200 1400 L 1100 1400 Z"/>
    <path id="13-14" fill="#30120b" stroke="none" d="M 1200 1300 L 1300 1300 L 1300 1400 L 1200 1400 Z"/>
    <path id="14-14" fill="#30120b" stroke="none" d="M 1300 1300 L 1400 1300 L 1400 1400 L 1300 1400 Z"/>
    <path id="15-14" fill="#cd4a13" stroke="none" d="M 1400 1300 L 1500 1300 L 1500 1400 L 1400 1400 Z"/>
    <path id="16-14" fill="#f5771f" stroke="none" d="M 1500 1300 L 1600 1300 L 1600 1400 L 1500 1400 Z"/>
    <path id="17-14" fill="#ffb23a" stroke="none" d="M 1600 1300 L 1700 1300 L 1700 1400 L 1600 1400 Z"/>
    <path id="18-14" fill="#f5771f" stroke="none" d="M 1700 1300 L 1800 1300 L 1800 1400 L 1700 1400 Z"/>
    <path id="19-14" fill="#f5771f" stroke="none" d="M 1800 1300 L 1900 1300 L 1900 1400 L 1800 1400 Z"/>
    <path id="20-14" fill="#cd4a13" stroke="none" d="M 1900 1300 L 2000 1300 L 2000 1400 L 1900 1400 Z"/>
    <path id="21-14" fill="#cd4a13" stroke="none" d="M 2000 1300 L 2100 1300 L 2100 1400 L 2000 1400 Z"/>
    <path id="22-14" fill="#4e1419" stroke="none" d="M 2100 1300 L 2200 1300 L 2200 1400 L 2100 1400 Z"/>
    <path id="23-14" fill="#4e1419" stroke="none" d="M 2200 1300 L 2300 1300 L 2300 1400 L 2200 1400 Z"/>
    <path id="24-14" fill="#ffe37c" stroke="none" d="M 2300 1300 L 2400 1300 L 2400 1400 L 2300 1400 Z"/>
    <path id="25-14" fill="#ffe37c" stroke="none" d="M 2400 1300 L 2500 1300 L 2500 1400 L 2400 1400 Z"/>
    <path id="26-14" fill="#ffffd3" stroke="none" d="M 2500 1300 L 2600 1300 L 2600 1400 L 2500 1400 Z"/>
    <path id="27-14" fill="#ffffd3" stroke="none" d="M 2600 1300 L 2700 1300 L 2700 1400 L 2600 1400 Z"/>
    <path id="28-14" fill="#ffd750" stroke="none" d="M 2700 1300 L 2800 1300 L 2800 1400 L 2700 1400 Z"/>
    <path id="29-14" fill="#ffffd3" stroke="none" d="M 2800 1300 L 2900 1300 L 2900 1400 L 2800 1400 Z"/>
    <path id="30-14" fill="#ef8417" stroke="none" d="M 2900 1300 L 3000 1300 L 3000 1400 L 2900 1400 Z"/>
    <path id="31-14" fill="#ef8417" stroke="none" d="M 3000 1300 L 3100 1300 L 3100 1400 L 3000 1400 Z"/>
    <path id="32-14" fill="#ffd750" stroke="none" d="M 3100 1300 L 3200 1300 L 3200 1400 L 3100 1400 Z"/>
    <path id="33-14" fill="#ffb23a" stroke="none" d="M 3200 1300 L 3300 1300 L 3300 1400 L 3200 1400 Z"/>
    <path id="34-14" fill="#f5771f" stroke="none" d="M 3300 1300 L 3400 1300 L 3400 1400 L 3300 1400 Z"/>
    <path id="35-14" fill="#cd4a13" stroke="none" d="M 3400 1300 L 3500 1300 L 3500 1400 L 3400 1400 Z"/>
    <path id="36-14" fill="#cd4a13" stroke="none" d="M 3500 1300 L 3600 1300 L 3600 1400 L 3500 1400 Z"/>
    <path id="37-14" fill="#f5771f" stroke="none" d="M 3600 1300 L 3700 1300 L 3700 1400 L 3600 1400 Z"/>
    <path id="38-14" fill="#cd4a13" stroke="none" d="M 3700 1300 L 3800 1300 L 3800 1400 L 3700 1400 Z"/>
    <path id="39-14" fill="#1f0b0b" stroke="none" d="M 3800 1300 L 3900 1300 L 3900 1400 L 3800 1400 Z"/>
    <path id="40-14" fill="#612b15" stroke="none" d="M 3900 1300 L 4000 1300 L 4000 1400 L 3900 1400 Z"/>
    <path id="3-15" fill="#874427" stroke="none" d="M 200 1400 L 300 1400 L 300 1500 L 200 1500 Z"/>
    <path id="4-15" fill="#f88d32" stroke="none" d="M 300 1400 L 400 1400 L 400 1500 L 300 1500 Z"/>
    <path id="5-15" fill="#30120d" stroke="none" d="M 400 1400 L 500 1400 L 500 1500 L 400 1500 Z"/>
    <path id="6-15" fill="#f88d32" stroke="none" d="M 500 1400 L 600 1400 L 600 1500 L 500 1500 Z"/>
    <path id="7-15" fill="#ffea91" stroke="none" d="M 600 1400 L 700 1400 L 700 1500 L 600 1500 Z"/>
    <path id="8-15" fill="#ffea91" stroke="none" d="M 700 1400 L 800 1400 L 800 1500 L 700 1500 Z"/>
    <path id="9-15" fill="#ffffdc" stroke="none" d="M 800 1400 L 900 1400 L 900 1500 L 800 1500 Z"/>
    <path id="10-15" fill="#ffffdc" stroke="none" d="M 900 1400 L 1000 1400 L 1000 1500 L 900 1500 Z"/>
    <path id="11-15" fill="#ffea91" stroke="none" d="M 1000 1400 L 1100 1400 L 1100 1500 L 1000 1500 Z"/>
    <path id="12-15" fill="#ffea91" stroke="none" d="M 1100 1400 L 1200 1400 L 1200 1500 L 1100 1500 Z"/>
    <path id="13-15" fill="#ffbf53" stroke="none" d="M 1200 1400 L 1300 1400 L 1300 1500 L 1200 1500 Z"/>
    <path id="14-15" fill="#f88d32" stroke="none" d="M 1300 1400 L 1400 1400 L 1400 1500 L 1300 1500 Z"/>
    <path id="15-15" fill="#30120b" stroke="none" d="M 1400 1400 L 1500 1400 L 1500 1500 L 1400 1500 Z"/>
    <path id="16-15" fill="#cd4a13" stroke="none" d="M 1500 1400 L 1600 1400 L 1600 1500 L 1500 1500 Z"/>
    <path id="17-15" fill="#cd4a13" stroke="none" d="M 1600 1400 L 1700 1400 L 1700 1500 L 1600 1500 Z"/>
    <path id="18-15" fill="#cd4a13" stroke="none" d="M 1700 1400 L 1800 1400 L 1800 1500 L 1700 1500 Z"/>
    <path id="19-15" fill="#cd4a13" stroke="none" d="M 1800 1400 L 1900 1400 L 1900 1500 L 1800 1500 Z"/>
    <path id="20-15" fill="#4e1419" stroke="none" d="M 1900 1400 L 2000 1400 L 2000 1500 L 1900 1500 Z"/>
    <path id="21-15" fill="#4e1419" stroke="none" d="M 2000 1400 L 2100 1400 L 2100 1500 L 2000 1500 Z"/>
    <path id="22-15" fill="#ffe37c" stroke="none" d="M 2100 1400 L 2200 1400 L 2200 1500 L 2100 1500 Z"/>
    <path id="23-15" fill="#ffe37c" stroke="none" d="M 2200 1400 L 2300 1400 L 2300 1500 L 2200 1500 Z"/>
    <path id="24-15" fill="#ffffd3" stroke="none" d="M 2300 1400 L 2400 1400 L 2400 1500 L 2300 1500 Z"/>
    <path id="25-15" fill="#ffffd3" stroke="none" d="M 2400 1400 L 2500 1400 L 2500 1500 L 2400 1500 Z"/>
    <path id="26-15" fill="#ffffd3" stroke="none" d="M 2500 1400 L 2600 1400 L 2600 1500 L 2500 1500 Z"/>
    <path id="27-15" fill="#ffffd3" stroke="none" d="M 2600 1400 L 2700 1400 L 2700 1500 L 2600 1500 Z"/>
    <path id="28-15" fill="#ffb23a" stroke="none" d="M 2700 1400 L 2800 1400 L 2800 1500 L 2700 1500 Z"/>
    <path id="29-15" fill="#ffd750" stroke="none" d="M 2800 1400 L 2900 1400 L 2900 1500 L 2800 1500 Z"/>
    <path id="30-15" fill="#ffffd3" stroke="none" d="M 2900 1400 L 3000 1400 L 3000 1500 L 2900 1500 Z"/>
    <path id="31-15" fill="#ffd750" stroke="none" d="M 3000 1400 L 3100 1400 L 3100 1500 L 3000 1500 Z"/>
    <path id="32-15" fill="#ffd750" stroke="none" d="M 3100 1400 L 3200 1400 L 3200 1500 L 3100 1500 Z"/>
    <path id="33-15" fill="#f5771f" stroke="none" d="M 3200 1400 L 3300 1400 L 3300 1500 L 3200 1500 Z"/>
    <path id="34-15" fill="#f5771f" stroke="none" d="M 3300 1400 L 3400 1400 L 3400 1500 L 3300 1500 Z"/>
    <path id="35-15" fill="#fdab28" stroke="none" d="M 3400 1400 L 3500 1400 L 3500 1500 L 3400 1500 Z"/>
    <path id="36-15" fill="#cd4a13" stroke="none" d="M 3500 1400 L 3600 1400 L 3600 1500 L 3500 1500 Z"/>
    <path id="37-15" fill="#cd4a13" stroke="none" d="M 3600 1400 L 3700 1400 L 3700 1500 L 3600 1500 Z"/>
    <path id="38-15" fill="#702d17" stroke="none" d="M 3700 1400 L 3800 1400 L 3800 1500 L 3700 1500 Z"/>
    <path id="39-15" fill="#1f0b0b" stroke="none" d="M 3800 1400 L 3900 1400 L 3900 1500 L 3800 1500 Z"/>
    <path id="40-15" fill="#1f0b0b" stroke="none" d="M 3900 1400 L 4000 1400 L 4000 1500 L 3900 1500 Z"/>
    <path id="3-16" fill="#874427" stroke="none" d="M 200 1500 L 300 1500 L 300 1600 L 200 1600 Z"/>
    <path id="4-16" fill="#30120d" stroke="none" d="M 300 1500 L 400 1500 L 400 1600 L 300 1600 Z"/>
    <path id="5-16" fill="#ffbf53" stroke="none" d="M 400 1500 L 500 1500 L 500 1600 L 400 1600 Z"/>
    <path id="6-16" fill="#ffea91" stroke="none" d="M 500 1500 L 600 1500 L 600 1600 L 500 1600 Z"/>
    <path id="7-16" fill="#ffffdc" stroke="none" d="M 600 1500 L 700 1500 L 700 1600 L 600 1600 Z"/>
    <path id="8-16" fill="#ffffdc" stroke="none" d="M 700 1500 L 800 1500 L 800 1600 L 700 1600 Z"/>
    <path id="9-16" fill="#ffffdc" stroke="none" d="M 800 1500 L 900 1500 L 900 1600 L 800 1600 Z"/>
    <path id="10-16" fill="#ffffdc" stroke="none" d="M 900 1500 L 1000 1500 L 1000 1600 L 900 1600 Z"/>
    <path id="11-16" fill="#ffffdc" stroke="none" d="M 1000 1500 L 1100 1500 L 1100 1600 L 1000 1600 Z"/>
    <path id="12-16" fill="#ffffdc" stroke="none" d="M 1100 1500 L 1200 1500 L 1200 1600 L 1100 1600 Z"/>
    <path id="13-16" fill="#ffea91" stroke="none" d="M 1200 1500 L 1300 1500 L 1300 1600 L 1200 1600 Z"/>
    <path id="14-16" fill="#ffea91" stroke="none" d="M 1300 1500 L 1400 1500 L 1400 1600 L 1300 1600 Z"/>
    <path id="15-16" fill="#f88d32" stroke="none" d="M 1400 1500 L 1500 1500 L 1500 1600 L 1400 1600 Z"/>
    <path id="16-16" fill="#30120b" stroke="none" d="M 1500 1500 L 1600 1500 L 1600 1600 L 1500 1600 Z"/>
    <path id="17-16" fill="#4e1419" stroke="none" d="M 1600 1500 L 1700 1500 L 1700 1600 L 1600 1600 Z"/>
    <path id="18-16" fill="#4e1419" stroke="none" d="M 1700 1500 L 1800 1500 L 1800 1600 L 1700 1600 Z"/>
    <path id="19-16" fill="#4e1419" stroke="none" d="M 1800 1500 L 1900 1500 L 1900 1600 L 1800 1600 Z"/>
    <path id="20-16" fill="#ffe37c" stroke="none" d="M 1900 1500 L 2000 1500 L 2000 1600 L 1900 1600 Z"/>
    <path id="21-16" fill="#ffffd3" stroke="none" d="M 2000 1500 L 2100 1500 L 2100 1600 L 2000 1600 Z"/>
    <path id="22-16" fill="#ffffd3" stroke="none" d="M 2100 1500 L 2200 1500 L 2200 1600 L 2100 1600 Z"/>
    <path id="23-16" fill="#ffffd3" stroke="none" d="M 2200 1500 L 2300 1500 L 2300 1600 L 2200 1600 Z"/>
    <path id="24-16" fill="#ffffd3" stroke="none" d="M 2300 1500 L 2400 1500 L 2400 1600 L 2300 1600 Z"/>
    <path id="25-16" fill="#ffffd3" stroke="none" d="M 2400 1500 L 2500 1500 L 2500 1600 L 2400 1600 Z"/>
    <path id="26-16" fill="#ffffd3" stroke="none" d="M 2500 1500 L 2600 1500 L 2600 1600 L 2500 1600 Z"/>
    <path id="27-16" fill="#ffd750" stroke="none" d="M 2600 1500 L 2700 1500 L 2700 1600 L 2600 1600 Z"/>
    <path id="28-16" fill="#ffd750" stroke="none" d="M 2700 1500 L 2800 1500 L 2800 1600 L 2700 1600 Z"/>
    <path id="29-16" fill="#ffb23a" stroke="none" d="M 2800 1500 L 2900 1500 L 2900 1600 L 2800 1600 Z"/>
    <path id="30-16" fill="#ffb23a" stroke="none" d="M 2900 1500 L 3000 1500 L 3000 1600 L 2900 1600 Z"/>
    <path id="31-16" fill="#ffb23a" stroke="none" d="M 3000 1500 L 3100 1500 L 3100 1600 L 3000 1600 Z"/>
    <path id="32-16" fill="#cd4a13" stroke="none" d="M 3100 1500 L 3200 1500 L 3200 1600 L 3100 1600 Z"/>
    <path id="33-16" fill="#cd4a13" stroke="none" d="M 3200 1500 L 3300 1500 L 3300 1600 L 3200 1600 Z"/>
    <path id="34-16" fill="#f5771f" stroke="none" d="M 3300 1500 L 3400 1500 L 3400 1600 L 3300 1600 Z"/>
    <path id="35-16" fill="#f5771f" stroke="none" d="M 3400 1500 L 3500 1500 L 3500 1600 L 3400 1600 Z"/>
    <path id="36-16" fill="#f5771f" stroke="none" d="M 3500 1500 L 3600 1500 L 3600 1600 L 3500 1600 Z"/>
    <path id="37-16" fill="#702d17" stroke="none" d="M 3600 1500 L 3700 1500 L 3700 1600 L 3600 1600 Z"/>
    <path id="38-16" fill="#702d17" stroke="none" d="M 3700 1500 L 3800 1500 L 3800 1600 L 3700 1600 Z"/>
    <path id="39-16" fill="#1f0b0b" stroke="none" d="M 3800 1500 L 3900 1500 L 3900 1600 L 3800 1600 Z"/>
    <path id="2-17" fill="#874427" stroke="none" d="M 100 1600 L 200 1600 L 200 1700 L 100 1700 Z"/>
    <path id="3-17" fill="#30120d" stroke="none" d="M 200 1600 L 300 1600 L 300 1700 L 200 1700 Z"/>
    <path id="4-17" fill="#ffbf53" stroke="none" d="M 300 1600 L 400 1600 L 400 1700 L 300 1700 Z"/>
    <path id="5-17" fill="#ffea91" stroke="none" d="M 400 1600 L 500 1600 L 500 1700 L 400 1700 Z"/>
    <path id="6-17" fill="#ffffdc" stroke="none" d="M 500 1600 L 600 1600 L 600 1700 L 500 1700 Z"/>
    <path id="7-17" fill="#ffffdc" stroke="none" d="M 600 1600 L 700 1600 L 700 1700 L 600 1700 Z"/>
    <path id="8-17" fill="#ffffdc" stroke="none" d="M 700 1600 L 800 1600 L 800 1700 L 700 1700 Z"/>
    <path id="9-17" fill="#ffffdc" stroke="none" d="M 800 1600 L 900 1600 L 900 1700 L 800 1700 Z"/>
    <path id="10-17" fill="#ffffdc" stroke="none" d="M 900 1600 L 1000 1600 L 1000 1700 L 900 1700 Z"/>
    <path id="11-17" fill="#ffffdc" stroke="none" d="M 1000 1600 L 1100 1600 L 1100 1700 L 1000 1700 Z"/>
    <path id="12-17" fill="#ffffdc" stroke="none" d="M 1100 1600 L 1200 1600 L 1200 1700 L 1100 1700 Z"/>
    <path id="13-17" fill="#ffffdc" stroke="none" d="M 1200 1600 L 1300 1600 L 1300 1700 L 1200 1700 Z"/>
    <path id="14-17" fill="#ffffdc" stroke="none" d="M 1300 1600 L 1400 1600 L 1400 1700 L 1300 1700 Z"/>
    <path id="15-17" fill="#ffbf53" stroke="none" d="M 1400 1600 L 1500 1600 L 1500 1700 L 1400 1700 Z"/>
    <path id="16-17" fill="#30120b" stroke="none" d="M 1500 1600 L 1600 1600 L 1600 1700 L 1500 1700 Z"/>
    <path id="17-17" fill="#ffb23a" stroke="none" d="M 1600 1600 L 1700 1600 L 1700 1700 L 1600 1700 Z"/>
    <path id="18-17" fill="#ffffd3" stroke="none" d="M 1700 1600 L 1800 1600 L 1800 1700 L 1700 1700 Z"/>
    <path id="19-17" fill="#ffe37c" stroke="none" d="M 1800 1600 L 1900 1600 L 1900 1700 L 1800 1700 Z"/>
    <path id="20-17" fill="#ffffd3" stroke="none" d="M 1900 1600 L 2000 1600 L 2000 1700 L 1900 1700 Z"/>
    <path id="21-17" fill="#ffffd3" stroke="none" d="M 2000 1600 L 2100 1600 L 2100 1700 L 2000 1700 Z"/>
    <path id="22-17" fill="#ffffd3" stroke="none" d="M 2100 1600 L 2200 1600 L 2200 1700 L 2100 1700 Z"/>
    <path id="23-17" fill="#ffffd3" stroke="none" d="M 2200 1600 L 2300 1600 L 2300 1700 L 2200 1700 Z"/>
    <path id="24-17" fill="#ffd750" stroke="none" d="M 2300 1600 L 2400 1600 L 2400 1700 L 2300 1700 Z"/>
    <path id="25-17" fill="#ffd750" stroke="none" d="M 2400 1600 L 2500 1600 L 2500 1700 L 2400 1700 Z"/>
    <path id="26-17" fill="#ffffd3" stroke="none" d="M 2500 1600 L 2600 1600 L 2600 1700 L 2500 1700 Z"/>
    <path id="27-17" fill="#ffb23a" stroke="none" d="M 2600 1600 L 2700 1600 L 2700 1700 L 2600 1700 Z"/>
    <path id="28-17" fill="#ffb23a" stroke="none" d="M 2700 1600 L 2800 1600 L 2800 1700 L 2700 1700 Z"/>
    <path id="29-17" fill="#f5771f" stroke="none" d="M 2800 1600 L 2900 1600 L 2900 1700 L 2800 1700 Z"/>
    <path id="30-17" fill="#cd4a13" stroke="none" d="M 2900 1600 L 3000 1600 L 3000 1700 L 2900 1700 Z"/>
    <path id="31-17" fill="#fdab28" stroke="none" d="M 3000 1600 L 3100 1600 L 3100 1700 L 3000 1700 Z"/>
    <path id="32-17" fill="#fdab28" stroke="none" d="M 3100 1600 L 3200 1600 L 3200 1700 L 3100 1700 Z"/>
    <path id="33-17" fill="#f5771f" stroke="none" d="M 3200 1600 L 3300 1600 L 3300 1700 L 3200 1700 Z"/>
    <path id="34-17" fill="#702d17" stroke="none" d="M 3300 1600 L 3400 1600 L 3400 1700 L 3300 1700 Z"/>
    <path id="35-17" fill="#cd4a13" stroke="none" d="M 3400 1600 L 3500 1600 L 3500 1700 L 3400 1700 Z"/>
    <path id="36-17" fill="#cd4a13" stroke="none" d="M 3500 1600 L 3600 1600 L 3600 1700 L 3500 1700 Z"/>
    <path id="37-17" fill="#702d17" stroke="none" d="M 3600 1600 L 3700 1600 L 3700 1700 L 3600 1700 Z"/>
    <path id="38-17" fill="#1f0b0b" stroke="none" d="M 3700 1600 L 3800 1600 L 3800 1700 L 3700 1700 Z"/>
    <path id="2-18" fill="#874427" stroke="none" d="M 100 1700 L 200 1700 L 200 1800 L 100 1800 Z"/>
    <path id="3-18" fill="#30120d" stroke="none" d="M 200 1700 L 300 1700 L 300 1800 L 200 1800 Z"/>
    <path id="4-18" fill="#ffea91" stroke="none" d="M 300 1700 L 400 1700 L 400 1800 L 300 1800 Z"/>
    <path id="5-18" fill="#ffffdc" stroke="none" d="M 400 1700 L 500 1700 L 500 1800 L 400 1800 Z"/>
    <path id="6-18" fill="#ffffdc" stroke="none" d="M 500 1700 L 600 1700 L 600 1800 L 500 1800 Z"/>
    <path id="7-18" fill="#ffffdc" stroke="none" d="M 600 1700 L 700 1700 L 700 1800 L 600 1800 Z"/>
    <path id="8-18" fill="#ffffdc" stroke="none" d="M 700 1700 L 800 1700 L 800 1800 L 700 1800 Z"/>
    <path id="9-18" fill="#ffffdc" stroke="none" d="M 800 1700 L 900 1700 L 900 1800 L 800 1800 Z"/>
    <path id="10-18" fill="#ffffdc" stroke="none" d="M 900 1700 L 1000 1700 L 1000 1800 L 900 1800 Z"/>
    <path id="11-18" fill="#ffffdc" stroke="none" d="M 1000 1700 L 1100 1700 L 1100 1800 L 1000 1800 Z"/>
    <path id="12-18" fill="#ffffdc" stroke="none" d="M 1100 1700 L 1200 1700 L 1200 1800 L 1100 1800 Z"/>
    <path id="13-18" fill="#ffffdc" stroke="none" d="M 1200 1700 L 1300 1700 L 1300 1800 L 1200 1800 Z"/>
    <path id="14-18" fill="#ffffdc" stroke="none" d="M 1300 1700 L 1400 1700 L 1400 1800 L 1300 1800 Z"/>
    <path id="15-18" fill="#ffea91" stroke="none" d="M 1400 1700 L 1500 1700 L 1500 1800 L 1400 1800 Z"/>
    <path id="16-18" fill="#ffbf53" stroke="none" d="M 1500 1700 L 1600 1700 L 1600 1800 L 1500 1800 Z"/>
    <path id="17-18" fill="#1e0a07" stroke="none" d="M 1600 1700 L 1700 1700 L 1700 1800 L 1600 1800 Z"/>
    <path id="18-18" fill="#ffd750" stroke="none" d="M 1700 1700 L 1800 1700 L 1800 1800 L 1700 1800 Z"/>
    <path id="19-18" fill="#ffffd3" stroke="none" d="M 1800 1700 L 1900 1700 L 1900 1800 L 1800 1800 Z"/>
    <path id="20-18" fill="#ffffd3" stroke="none" d="M 1900 1700 L 2000 1700 L 2000 1800 L 1900 1800 Z"/>
    <path id="21-18" fill="#ffd750" stroke="none" d="M 2000 1700 L 2100 1700 L 2100 1800 L 2000 1800 Z"/>
    <path id="22-18" fill="#ffb23a" stroke="none" d="M 2100 1700 L 2200 1700 L 2200 1800 L 2100 1800 Z"/>
    <path id="23-18" fill="#ffd750" stroke="none" d="M 2200 1700 L 2300 1700 L 2300 1800 L 2200 1800 Z"/>
    <path id="24-18" fill="#ffb23a" stroke="none" d="M 2300 1700 L 2400 1700 L 2400 1800 L 2300 1800 Z"/>
    <path id="25-18" fill="#ffb23a" stroke="none" d="M 2400 1700 L 2500 1700 L 2500 1800 L 2400 1800 Z"/>
    <path id="26-18" fill="#ffb23a" stroke="none" d="M 2500 1700 L 2600 1700 L 2600 1800 L 2500 1800 Z"/>
    <path id="27-18" fill="#cd4a13" stroke="none" d="M 2600 1700 L 2700 1700 L 2700 1800 L 2600 1800 Z"/>
    <path id="28-18" fill="#f5771f" stroke="none" d="M 2700 1700 L 2800 1700 L 2800 1800 L 2700 1800 Z"/>
    <path id="29-18" fill="#cd4a13" stroke="none" d="M 2800 1700 L 2900 1700 L 2900 1800 L 2800 1800 Z"/>
    <path id="30-18" fill="#f5771f" stroke="none" d="M 2900 1700 L 3000 1700 L 3000 1800 L 2900 1800 Z"/>
    <path id="31-18" fill="#f5771f" stroke="none" d="M 3000 1700 L 3100 1700 L 3100 1800 L 3000 1800 Z"/>
    <path id="32-18" fill="#f5771f" stroke="none" d="M 3100 1700 L 3200 1700 L 3200 1800 L 3100 1800 Z"/>
    <path id="33-18" fill="#cd4a13" stroke="none" d="M 3200 1700 L 3300 1700 L 3300 1800 L 3200 1800 Z"/>
    <path id="34-18" fill="#cd4a13" stroke="none" d="M 3300 1700 L 3400 1700 L 3400 1800 L 3300 1800 Z"/>
    <path id="35-18" fill="#702d17" stroke="none" d="M 3400 1700 L 3500 1700 L 3500 1800 L 3400 1800 Z"/>
    <path id="36-18" fill="#1f0b0b" stroke="none" d="M 3500 1700 L 3600 1700 L 3600 1800 L 3500 1800 Z"/>
    <path id="37-18" fill="#1f0b0b" stroke="none" d="M 3600 1700 L 3700 1700 L 3700 1800 L 3600 1800 Z"/>
    <path id="2-19" fill="#4e1419" stroke="none" d="M 100 1800 L 200 1800 L 200 1900 L 100 1900 Z"/>
    <path id="3-19" fill="#ffbf53" stroke="none" d="M 200 1800 L 300 1800 L 300 1900 L 200 1900 Z"/>
    <path id="4-19" fill="#ffffdc" stroke="none" d="M 300 1800 L 400 1800 L 400 1900 L 300 1900 Z"/>
    <path id="5-19" fill="#ffffdc" stroke="none" d="M 400 1800 L 500 1800 L 500 1900 L 400 1900 Z"/>
    <path id="6-19" fill="#ffffdc" stroke="none" d="M 500 1800 L 600 1800 L 600 1900 L 500 1900 Z"/>
    <path id="7-19" fill="#ffffdc" stroke="none" d="M 600 1800 L 700 1800 L 700 1900 L 600 1900 Z"/>
    <path id="8-19" fill="#ffffdc" stroke="none" d="M 700 1800 L 800 1800 L 800 1900 L 700 1900 Z"/>
    <path id="9-19" fill="#ffffdc" stroke="none" d="M 800 1800 L 900 1800 L 900 1900 L 800 1900 Z"/>
    <path id="10-19" fill="#ffffdc" stroke="none" d="M 900 1800 L 1000 1800 L 1000 1900 L 900 1900 Z"/>
    <path id="11-19" fill="#ffffdc" stroke="none" d="M 1000 1800 L 1100 1800 L 1100 1900 L 1000 1900 Z"/>
    <path id="12-19" fill="#ffffdc" stroke="none" d="M 1100 1800 L 1200 1800 L 1200 1900 L 1100 1900 Z"/>
    <path id="13-19" fill="#ffffdc" stroke="none" d="M 1200 1800 L 1300 1800 L 1300 1900 L 1200 1900 Z"/>
    <path id="14-19" fill="#ffffdc" stroke="none" d="M 1300 1800 L 1400 1800 L 1400 1900 L 1300 1900 Z"/>
    <path id="15-19" fill="#ffffdc" stroke="none" d="M 1400 1800 L 1500 1800 L 1500 1900 L 1400 1900 Z"/>
    <path id="16-19" fill="#ffea91" stroke="none" d="M 1500 1800 L 1600 1800 L 1600 1900 L 1500 1900 Z"/>
    <path id="17-19" fill="#30120d" stroke="none" d="M 1600 1800 L 1700 1800 L 1700 1900 L 1600 1900 Z"/>
    <path id="18-19" fill="#ffd750" stroke="none" d="M 1700 1800 L 1800 1800 L 1800 1900 L 1700 1900 Z"/>
    <path id="19-19" fill="#ffffd3" stroke="none" d="M 1800 1800 L 1900 1800 L 1900 1900 L 1800 1900 Z"/>
    <path id="20-19" fill="#ffb23a" stroke="none" d="M 1900 1800 L 2000 1800 L 2000 1900 L 1900 1900 Z"/>
    <path id="21-19" fill="#ef8417" stroke="none" d="M 2000 1800 L 2100 1800 L 2100 1900 L 2000 1900 Z"/>
    <path id="22-19" fill="#ffffd3" stroke="none" d="M 2100 1800 L 2200 1800 L 2200 1900 L 2100 1900 Z"/>
    <path id="23-19" fill="#ffd750" stroke="none" d="M 2200 1800 L 2300 1800 L 2300 1900 L 2200 1900 Z"/>
    <path id="24-19" fill="#ffd750" stroke="none" d="M 2300 1800 L 2400 1800 L 2400 1900 L 2300 1900 Z"/>
    <path id="25-19" fill="#cd4a13" stroke="none" d="M 2400 1800 L 2500 1800 L 2500 1900 L 2400 1900 Z"/>
    <path id="26-19" fill="#cd4a13" stroke="none" d="M 2500 1800 L 2600 1800 L 2600 1900 L 2500 1900 Z"/>
    <path id="27-19" fill="#f5771f" stroke="none" d="M 2600 1800 L 2700 1800 L 2700 1900 L 2600 1900 Z"/>
    <path id="28-19" fill="#f5771f" stroke="none" d="M 2700 1800 L 2800 1800 L 2800 1900 L 2700 1900 Z"/>
    <path id="29-19" fill="#cd4a13" stroke="none" d="M 2800 1800 L 2900 1800 L 2900 1900 L 2800 1900 Z"/>
    <path id="30-19" fill="#cd4a13" stroke="none" d="M 2900 1800 L 3000 1800 L 3000 1900 L 2900 1900 Z"/>
    <path id="31-19" fill="#cd4a13" stroke="none" d="M 3000 1800 L 3100 1800 L 3100 1900 L 3000 1900 Z"/>
    <path id="32-19" fill="#702d17" stroke="none" d="M 3100 1800 L 3200 1800 L 3200 1900 L 3100 1900 Z"/>
    <path id="33-19" fill="#702d17" stroke="none" d="M 3200 1800 L 3300 1800 L 3300 1900 L 3200 1900 Z"/>
    <path id="34-19" fill="#1f0b0b" stroke="none" d="M 3300 1800 L 3400 1800 L 3400 1900 L 3300 1900 Z"/>
    <path id="35-19" fill="#1f0b0b" stroke="none" d="M 3400 1800 L 3500 1800 L 3500 1900 L 3400 1900 Z"/>
    <path id="2-20" fill="#4e1419" stroke="none" d="M 100 1900 L 200 1900 L 200 2000 L 100 2000 Z"/>
    <path id="3-20" fill="#ffea91" stroke="none" d="M 200 1900 L 300 1900 L 300 2000 L 200 2000 Z"/>
    <path id="4-20" fill="#ffffdc" stroke="none" d="M 300 1900 L 400 1900 L 400 2000 L 300 2000 Z"/>
    <path id="5-20" fill="#4e1419" stroke="none" d="M 400 1900 L 500 1900 L 500 2000 L 400 2000 Z"/>
    <path id="6-20" fill="#190b0d" stroke="none" d="M 500 1900 L 600 1900 L 600 2000 L 500 2000 Z"/>
    <path id="7-20" fill="#ffffdc" stroke="none" d="M 600 1900 L 700 1900 L 700 2000 L 600 2000 Z"/>
    <path id="8-20" fill="#ffffdc" stroke="none" d="M 700 1900 L 800 1900 L 800 2000 L 700 2000 Z"/>
    <path id="9-20" fill="#ffffdc" stroke="none" d="M 800 1900 L 900 1900 L 900 2000 L 800 2000 Z"/>
    <path id="10-20" fill="#ffffdc" stroke="none" d="M 900 1900 L 1000 1900 L 1000 2000 L 900 2000 Z"/>
    <path id="11-20" fill="#4e1419" stroke="none" d="M 1000 1900 L 1100 1900 L 1100 2000 L 1000 2000 Z"/>
    <path id="12-20" fill="#190b0d" stroke="none" d="M 1100 1900 L 1200 1900 L 1200 2000 L 1100 2000 Z"/>
    <path id="13-20" fill="#ffffdc" stroke="none" d="M 1200 1900 L 1300 1900 L 1300 2000 L 1200 2000 Z"/>
    <path id="14-20" fill="#ffffdc" stroke="none" d="M 1300 1900 L 1400 1900 L 1400 2000 L 1300 2000 Z"/>
    <path id="15-20" fill="#ffffdc" stroke="none" d="M 1400 1900 L 1500 1900 L 1500 2000 L 1400 2000 Z"/>
    <path id="16-20" fill="#ffea91" stroke="none" d="M 1500 1900 L 1600 1900 L 1600 2000 L 1500 2000 Z"/>
    <path id="17-20" fill="#30120d" stroke="none" d="M 1600 1900 L 1700 1900 L 1700 2000 L 1600 2000 Z"/>
    <path id="18-20" fill="#ffd750" stroke="none" d="M 1700 1900 L 1800 1900 L 1800 2000 L 1700 2000 Z"/>
    <path id="19-20" fill="#ffb23a" stroke="none" d="M 1800 1900 L 1900 1900 L 1900 2000 L 1800 2000 Z"/>
    <path id="20-20" fill="#ef8417" stroke="none" d="M 1900 1900 L 2000 1900 L 2000 2000 L 1900 2000 Z"/>
    <path id="21-20" fill="#ffb23a" stroke="none" d="M 2000 1900 L 2100 1900 L 2100 2000 L 2000 2000 Z"/>
    <path id="22-20" fill="#ffb23a" stroke="none" d="M 2100 1900 L 2200 1900 L 2200 2000 L 2100 2000 Z"/>
    <path id="23-20" fill="#f5771f" stroke="none" d="M 2200 1900 L 2300 1900 L 2300 2000 L 2200 2000 Z"/>
    <path id="24-20" fill="#cd4a13" stroke="none" d="M 2300 1900 L 2400 1900 L 2400 2000 L 2300 2000 Z"/>
    <path id="25-20" fill="#cd4a13" stroke="none" d="M 2400 1900 L 2500 1900 L 2500 2000 L 2400 2000 Z"/>
    <path id="26-20" fill="#cd4a13" stroke="none" d="M 2500 1900 L 2600 1900 L 2600 2000 L 2500 2000 Z"/>
    <path id="27-20" fill="#cd4a13" stroke="none" d="M 2600 1900 L 2700 1900 L 2700 2000 L 2600 2000 Z"/>
    <path id="28-20" fill="#cd4a13" stroke="none" d="M 2700 1900 L 2800 1900 L 2800 2000 L 2700 2000 Z"/>
    <path id="29-20" fill="#702d17" stroke="none" d="M 2800 1900 L 2900 1900 L 2900 2000 L 2800 2000 Z"/>
    <path id="30-20" fill="#702d17" stroke="none" d="M 2900 1900 L 3000 1900 L 3000 2000 L 2900 2000 Z"/>
    <path id="31-20" fill="#702d17" stroke="none" d="M 3000 1900 L 3100 1900 L 3100 2000 L 3000 2000 Z"/>
    <path id="32-20" fill="#1f0b0b" stroke="none" d="M 3100 1900 L 3200 1900 L 3200 2000 L 3100 2000 Z"/>
    <path id="33-20" fill="#1f0b0b" stroke="none" d="M 3200 1900 L 3300 1900 L 3300 2000 L 3200 2000 Z"/>
    <path id="1-21" fill="#4e1419" stroke="none" d="M 0 2000 L 100 2000 L 100 2100 L 0 2100 Z"/>
    <path id="2-21" fill="#ffbf53" stroke="none" d="M 100 2000 L 200 2000 L 200 2100 L 100 2100 Z"/>
    <path id="3-21" fill="#ffffdc" stroke="none" d="M 200 2000 L 300 2000 L 300 2100 L 200 2100 Z"/>
    <path id="4-21" fill="#923d44" stroke="none" d="M 300 2000 L 400 2000 L 400 2100 L 300 2100 Z"/>
    <path id="5-21" fill="#ffffdc" stroke="none" d="M 400 2000 L 500 2000 L 500 2100 L 400 2100 Z"/>
    <path id="6-21" fill="#ffffdc" stroke="none" d="M 500 2000 L 600 2000 L 600 2100 L 500 2100 Z"/>
    <path id="7-21" fill="#190b0d" stroke="none" d="M 600 2000 L 700 2000 L 700 2100 L 600 2100 Z"/>
    <path id="8-21" fill="#ffffdc" stroke="none" d="M 700 2000 L 800 2000 L 800 2100 L 700 2100 Z"/>
    <path id="9-21" fill="#ffffdc" stroke="none" d="M 800 2000 L 900 2000 L 900 2100 L 800 2100 Z"/>
    <path id="10-21" fill="#923d44" stroke="none" d="M 900 2000 L 1000 2000 L 1000 2100 L 900 2100 Z"/>
    <path id="11-21" fill="#ffffdc" stroke="none" d="M 1000 2000 L 1100 2000 L 1100 2100 L 1000 2100 Z"/>
    <path id="12-21" fill="#ffffdc" stroke="none" d="M 1100 2000 L 1200 2000 L 1200 2100 L 1100 2100 Z"/>
    <path id="13-21" fill="#190b0d" stroke="none" d="M 1200 2000 L 1300 2000 L 1300 2100 L 1200 2100 Z"/>
    <path id="14-21" fill="#ffffdc" stroke="none" d="M 1300 2000 L 1400 2000 L 1400 2100 L 1300 2100 Z"/>
    <path id="15-21" fill="#ffffdc" stroke="none" d="M 1400 2000 L 1500 2000 L 1500 2100 L 1400 2100 Z"/>
    <path id="16-21" fill="#ffea91" stroke="none" d="M 1500 2000 L 1600 2000 L 1600 2100 L 1500 2100 Z"/>
    <path id="17-21" fill="#30120d" stroke="none" d="M 1600 2000 L 1700 2000 L 1700 2100 L 1600 2100 Z"/>
    <path id="18-21" fill="#ffd750" stroke="none" d="M 1700 2000 L 1800 2000 L 1800 2100 L 1700 2100 Z"/>
    <path id="19-21" fill="#f5771f" stroke="none" d="M 1800 2000 L 1900 2000 L 1900 2100 L 1800 2100 Z"/>
    <path id="20-21" fill="#ffb23a" stroke="none" d="M 1900 2000 L 2000 2000 L 2000 2100 L 1900 2100 Z"/>
    <path id="21-21" fill="#cd4a13" stroke="none" d="M 2000 2000 L 2100 2000 L 2100 2100 L 2000 2100 Z"/>
    <path id="22-21" fill="#cd4a13" stroke="none" d="M 2100 2000 L 2200 2000 L 2200 2100 L 2100 2100 Z"/>
    <path id="23-21" fill="#f5771f" stroke="none" d="M 2200 2000 L 2300 2000 L 2300 2100 L 2200 2100 Z"/>
    <path id="24-21" fill="#cd4a13" stroke="none" d="M 2300 2000 L 2400 2000 L 2400 2100 L 2300 2100 Z"/>
    <path id="25-21" fill="#f5771f" stroke="none" d="M 2400 2000 L 2500 2000 L 2500 2100 L 2400 2100 Z"/>
    <path id="26-21" fill="#cd4a13" stroke="none" d="M 2500 2000 L 2600 2000 L 2600 2100 L 2500 2100 Z"/>
    <path id="27-21" fill="#cd4a13" stroke="none" d="M 2600 2000 L 2700 2000 L 2700 2100 L 2600 2100 Z"/>
    <path id="28-21" fill="#702d17" stroke="none" d="M 2700 2000 L 2800 2000 L 2800 2100 L 2700 2100 Z"/>
    <path id="29-21" fill="#702d17" stroke="none" d="M 2800 2000 L 2900 2000 L 2900 2100 L 2800 2100 Z"/>
    <path id="30-21" fill="#1f0b0b" stroke="none" d="M 2900 2000 L 3000 2000 L 3000 2100 L 2900 2100 Z"/>
    <path id="31-21" fill="#1f0b0b" stroke="none" d="M 3000 2000 L 3100 2000 L 3100 2100 L 3000 2100 Z"/>
    <path id="1-22" fill="#4e1419" stroke="none" d="M 0 2100 L 100 2100 L 100 2200 L 0 2200 Z"/>
    <path id="2-22" fill="#ffea91" stroke="none" d="M 100 2100 L 200 2100 L 200 2200 L 100 2200 Z"/>
    <path id="3-22" fill="#ffea91" stroke="none" d="M 200 2100 L 300 2100 L 300 2200 L 200 2200 Z"/>
    <path id="4-22" fill="#ffea91" stroke="none" d="M 300 2100 L 400 2100 L 400 2200 L 300 2200 Z"/>
    <path id="5-22" fill="#ffffdc" stroke="none" d="M 400 2100 L 500 2100 L 500 2200 L 400 2200 Z"/>
    <path id="6-22" fill="#ffffdc" stroke="none" d="M 500 2100 L 600 2100 L 600 2200 L 500 2200 Z"/>
    <path id="7-22" fill="#ffffdc" stroke="none" d="M 600 2100 L 700 2100 L 700 2200 L 600 2200 Z"/>
    <path id="8-22" fill="#ffffdc" stroke="none" d="M 700 2100 L 800 2100 L 800 2200 L 700 2200 Z"/>
    <path id="9-22" fill="#ffffdc" stroke="none" d="M 800 2100 L 900 2100 L 900 2200 L 800 2200 Z"/>
    <path id="10-22" fill="#ffffdc" stroke="none" d="M 900 2100 L 1000 2100 L 1000 2200 L 900 2200 Z"/>
    <path id="11-22" fill="#ffffdc" stroke="none" d="M 1000 2100 L 1100 2100 L 1100 2200 L 1000 2200 Z"/>
    <path id="12-22" fill="#ffffdc" stroke="none" d="M 1100 2100 L 1200 2100 L 1200 2200 L 1100 2200 Z"/>
    <path id="13-22" fill="#ffea91" stroke="none" d="M 1200 2100 L 1300 2100 L 1300 2200 L 1200 2200 Z"/>
    <path id="14-22" fill="#ffea91" stroke="none" d="M 1300 2100 L 1400 2100 L 1400 2200 L 1300 2200 Z"/>
    <path id="15-22" fill="#ffea91" stroke="none" d="M 1400 2100 L 1500 2100 L 1500 2200 L 1400 2200 Z"/>
    <path id="16-22" fill="#f88d32" stroke="none" d="M 1500 2100 L 1600 2100 L 1600 2200 L 1500 2200 Z"/>
    <path id="17-22" fill="#30120d" stroke="none" d="M 1600 2100 L 1700 2100 L 1700 2200 L 1600 2200 Z"/>
    <path id="18-22" fill="#ffd750" stroke="none" d="M 1700 2100 L 1800 2100 L 1800 2200 L 1700 2200 Z"/>
    <path id="19-22" fill="#f5771f" stroke="none" d="M 1800 2100 L 1900 2100 L 1900 2200 L 1800 2200 Z"/>
    <path id="20-22" fill="#cd4a13" stroke="none" d="M 1900 2100 L 2000 2100 L 2000 2200 L 1900 2200 Z"/>
    <path id="21-22" fill="#cd4a13" stroke="none" d="M 2000 2100 L 2100 2100 L 2100 2200 L 2000 2200 Z"/>
    <path id="22-22" fill="#fdab28" stroke="none" d="M 2100 2100 L 2200 2100 L 2200 2200 L 2100 2200 Z"/>
    <path id="23-22" fill="#f5771f" stroke="none" d="M 2200 2100 L 2300 2100 L 2300 2200 L 2200 2200 Z"/>
    <path id="24-22" fill="#f5771f" stroke="none" d="M 2300 2100 L 2400 2100 L 2400 2200 L 2300 2200 Z"/>
    <path id="25-22" fill="#cd4a13" stroke="none" d="M 2400 2100 L 2500 2100 L 2500 2200 L 2400 2200 Z"/>
    <path id="26-22" fill="#cd4a13" stroke="none" d="M 2500 2100 L 2600 2100 L 2600 2200 L 2500 2200 Z"/>
    <path id="27-22" fill="#702d17" stroke="none" d="M 2600 2100 L 2700 2100 L 2700 2200 L 2600 2200 Z"/>
    <path id="28-22" fill="#1f0b0b" stroke="none" d="M 2700 2100 L 2800 2100 L 2800 2200 L 2700 2200 Z"/>
    <path id="29-22" fill="#1f0b0b" stroke="none" d="M 2800 2100 L 2900 2100 L 2900 2200 L 2800 2200 Z"/>
    <path id="1-23" fill="#4e1419" stroke="none" d="M 0 2200 L 100 2200 L 100 2300 L 0 2300 Z"/>
    <path id="2-23" fill="#ffea91" stroke="none" d="M 100 2200 L 200 2200 L 200 2300 L 100 2300 Z"/>
    <path id="3-23" fill="#ffffdc" stroke="none" d="M 200 2200 L 300 2200 L 300 2300 L 200 2300 Z"/>
    <path id="4-23" fill="#ffffdc" stroke="none" d="M 300 2200 L 400 2200 L 400 2300 L 300 2300 Z"/>
    <path id="5-23" fill="#ffffdc" stroke="none" d="M 400 2200 L 500 2200 L 500 2300 L 400 2300 Z"/>
    <path id="6-23" fill="#ffffdc" stroke="none" d="M 500 2200 L 600 2200 L 600 2300 L 500 2300 Z"/>
    <path id="7-23" fill="#ffffdc" stroke="none" d="M 600 2200 L 700 2200 L 700 2300 L 600 2300 Z"/>
    <path id="8-23" fill="#ffffdc" stroke="none" d="M 700 2200 L 800 2200 L 800 2300 L 700 2300 Z"/>
    <path id="9-23" fill="#ffffdc" stroke="none" d="M 800 2200 L 900 2200 L 900 2300 L 800 2300 Z"/>
    <path id="10-23" fill="#ffffdc" stroke="none" d="M 900 2200 L 1000 2200 L 1000 2300 L 900 2300 Z"/>
    <path id="11-23" fill="#ffffdc" stroke="none" d="M 1000 2200 L 1100 2200 L 1100 2300 L 1000 2300 Z"/>
    <path id="12-23" fill="#ffffdc" stroke="none" d="M 1100 2200 L 1200 2200 L 1200 2300 L 1100 2300 Z"/>
    <path id="13-23" fill="#ffffdc" stroke="none" d="M 1200 2200 L 1300 2200 L 1300 2300 L 1200 2300 Z"/>
    <path id="14-23" fill="#ffffdc" stroke="none" d="M 1300 2200 L 1400 2200 L 1400 2300 L 1300 2300 Z"/>
    <path id="15-23" fill="#ffea91" stroke="none" d="M 1400 2200 L 1500 2200 L 1500 2300 L 1400 2300 Z"/>
    <path id="16-23" fill="#874427" stroke="none" d="M 1500 2200 L 1600 2200 L 1600 2300 L 1500 2300 Z"/>
    <path id="17-23" fill="#30120d" stroke="none" d="M 1600 2200 L 1700 2200 L 1700 2300 L 1600 2300 Z"/>
    <path id="18-23" fill="#ffd750" stroke="none" d="M 1700 2200 L 1800 2200 L 1800 2300 L 1700 2300 Z"/>
    <path id="19-23" fill="#cd4a13" stroke="none" d="M 1800 2200 L 1900 2200 L 1900 2300 L 1800 2300 Z"/>
    <path id="20-23" fill="#f5771f" stroke="none" d="M 1900 2200 L 2000 2200 L 2000 2300 L 1900 2300 Z"/>
    <path id="21-23" fill="#fdab28" stroke="none" d="M 2000 2200 L 2100 2200 L 2100 2300 L 2000 2300 Z"/>
    <path id="22-23" fill="#f5771f" stroke="none" d="M 2100 2200 L 2200 2200 L 2200 2300 L 2100 2300 Z"/>
    <path id="23-23" fill="#cd4a13" stroke="none" d="M 2200 2200 L 2300 2200 L 2300 2300 L 2200 2300 Z"/>
    <path id="24-23" fill="#cd4a13" stroke="none" d="M 2300 2200 L 2400 2200 L 2400 2300 L 2300 2300 Z"/>
    <path id="25-23" fill="#702d17" stroke="none" d="M 2400 2200 L 2500 2200 L 2500 2300 L 2400 2300 Z"/>
    <path id="26-23" fill="#1f0b0b" stroke="none" d="M 2500 2200 L 2600 2200 L 2600 2300 L 2500 2300 Z"/>
    <path id="27-23" fill="#1f0b0b" stroke="none" d="M 2600 2200 L 2700 2200 L 2700 2300 L 2600 2300 Z"/>
    <path id="1-24" fill="#4e1419" stroke="none" d="M 0 2300 L 100 2300 L 100 2400 L 0 2400 Z"/>
    <path id="2-24" fill="#ffea91" stroke="none" d="M 100 2300 L 200 2300 L 200 2400 L 100 2400 Z"/>
    <path id="3-24" fill="#ffffdc" stroke="none" d="M 200 2300 L 300 2300 L 300 2400 L 200 2400 Z"/>
    <path id="4-24" fill="#ffffdc" stroke="none" d="M 300 2300 L 400 2300 L 400 2400 L 300 2400 Z"/>
    <path id="5-24" fill="#ffea91" stroke="none" d="M 400 2300 L 500 2300 L 500 2400 L 400 2400 Z"/>
    <path id="6-24" fill="#923d44" stroke="none" d="M 500 2300 L 600 2300 L 600 2400 L 500 2400 Z"/>
    <path id="7-24" fill="#ffffdc" stroke="none" d="M 600 2300 L 700 2300 L 700 2400 L 600 2400 Z"/>
    <path id="8-24" fill="#ffffdc" stroke="none" d="M 700 2300 L 800 2300 L 800 2400 L 700 2400 Z"/>
    <path id="9-24" fill="#ffffdc" stroke="none" d="M 800 2300 L 900 2300 L 900 2400 L 800 2400 Z"/>
    <path id="10-24" fill="#ffffdc" stroke="none" d="M 900 2300 L 1000 2300 L 1000 2400 L 900 2400 Z"/>
    <path id="11-24" fill="#190b0d" stroke="none" d="M 1000 2300 L 1100 2300 L 1100 2400 L 1000 2400 Z"/>
    <path id="12-24" fill="#ffea91" stroke="none" d="M 1100 2300 L 1200 2300 L 1200 2400 L 1100 2400 Z"/>
    <path id="13-24" fill="#ffffdc" stroke="none" d="M 1200 2300 L 1300 2300 L 1300 2400 L 1200 2400 Z"/>
    <path id="14-24" fill="#ffea91" stroke="none" d="M 1300 2300 L 1400 2300 L 1400 2400 L 1300 2400 Z"/>
    <path id="15-24" fill="#f88d32" stroke="none" d="M 1400 2300 L 1500 2300 L 1500 2400 L 1400 2400 Z"/>
    <path id="16-24" fill="#30120d" stroke="none" d="M 1500 2300 L 1600 2300 L 1600 2400 L 1500 2400 Z"/>
    <path id="17-24" fill="#ffd750" stroke="none" d="M 1600 2300 L 1700 2300 L 1700 2400 L 1600 2400 Z"/>
    <path id="18-24" fill="#f5771f" stroke="none" d="M 1700 2300 L 1800 2300 L 1800 2400 L 1700 2400 Z"/>
    <path id="19-24" fill="#f5771f" stroke="none" d="M 1800 2300 L 1900 2300 L 1900 2400 L 1800 2400 Z"/>
    <path id="20-24" fill="#f5771f" stroke="none" d="M 1900 2300 L 2000 2300 L 2000 2400 L 1900 2400 Z"/>
    <path id="21-24" fill="#f5771f" stroke="none" d="M 2000 2300 L 2100 2300 L 2100 2400 L 2000 2400 Z"/>
    <path id="22-24" fill="#cd4a13" stroke="none" d="M 2100 2300 L 2200 2300 L 2200 2400 L 2100 2400 Z"/>
    <path id="23-24" fill="#702d17" stroke="none" d="M 2200 2300 L 2300 2300 L 2300 2400 L 2200 2400 Z"/>
    <path id="24-24" fill="#1f0b0b" stroke="none" d="M 2300 2300 L 2400 2300 L 2400 2400 L 2300 2400 Z"/>
    <path id="25-24" fill="#1f0b0b" stroke="none" d="M 2400 2300 L 2500 2300 L 2500 2400 L 2400 2400 Z"/>
    <path id="1-25" fill="#4e1419" stroke="none" d="M 0 2400 L 100 2400 L 100 2500 L 0 2500 Z"/>
    <path id="2-25" fill="#f88d32" stroke="none" d="M 100 2400 L 200 2400 L 200 2500 L 100 2500 Z"/>
    <path id="3-25" fill="#ffffdc" stroke="none" d="M 200 2400 L 300 2400 L 300 2500 L 200 2500 Z"/>
    <path id="4-25" fill="#ffffdc" stroke="none" d="M 300 2400 L 400 2400 L 400 2500 L 300 2500 Z"/>
    <path id="5-25" fill="#ffffdc" stroke="none" d="M 400 2400 L 500 2400 L 500 2500 L 400 2500 Z"/>
    <path id="6-25" fill="#ffffdc" stroke="none" d="M 500 2400 L 600 2400 L 600 2500 L 500 2500 Z"/>
    <path id="7-25" fill="#4e1419" stroke="none" d="M 600 2400 L 700 2400 L 700 2500 L 600 2500 Z"/>
    <path id="8-25" fill="#4e1419" stroke="none" d="M 700 2400 L 800 2400 L 800 2500 L 700 2500 Z"/>
    <path id="9-25" fill="#190b0d" stroke="none" d="M 800 2400 L 900 2400 L 900 2500 L 800 2500 Z"/>
    <path id="10-25" fill="#190b0d" stroke="none" d="M 900 2400 L 1000 2400 L 1000 2500 L 900 2500 Z"/>
    <path id="11-25" fill="#ffffdc" stroke="none" d="M 1000 2400 L 1100 2400 L 1100 2500 L 1000 2500 Z"/>
    <path id="12-25" fill="#ffffdc" stroke="none" d="M 1100 2400 L 1200 2400 L 1200 2500 L 1100 2500 Z"/>
    <path id="13-25" fill="#ffffdc" stroke="none" d="M 1200 2400 L 1300 2400 L 1300 2500 L 1200 2500 Z"/>
    <path id="14-25" fill="#ffea91" stroke="none" d="M 1300 2400 L 1400 2400 L 1400 2500 L 1300 2500 Z"/>
    <path id="15-25" fill="#874427" stroke="none" d="M 1400 2400 L 1500 2400 L 1500 2500 L 1400 2500 Z"/>
    <path id="16-25" fill="#30120d" stroke="none" d="M 1500 2400 L 1600 2400 L 1600 2500 L 1500 2500 Z"/>
    <path id="17-25" fill="#ffd750" stroke="none" d="M 1600 2400 L 1700 2400 L 1700 2500 L 1600 2500 Z"/>
    <path id="18-25" fill="#f5771f" stroke="none" d="M 1700 2400 L 1800 2400 L 1800 2500 L 1700 2500 Z"/>
    <path id="19-25" fill="#f5771f" stroke="none" d="M 1800 2400 L 1900 2400 L 1900 2500 L 1800 2500 Z"/>
    <path id="20-25" fill="#cd4a13" stroke="none" d="M 1900 2400 L 2000 2400 L 2000 2500 L 1900 2500 Z"/>
    <path id="21-25" fill="#cd4a13" stroke="none" d="M 2000 2400 L 2100 2400 L 2100 2500 L 2000 2500 Z"/>
    <path id="22-25" fill="#702d17" stroke="none" d="M 2100 2400 L 2200 2400 L 2200 2500 L 2100 2500 Z"/>
    <path id="23-25" fill="#1f0b0b" stroke="none" d="M 2200 2400 L 2300 2400 L 2300 2500 L 2200 2500 Z"/>
    <path id="2-26" fill="#4e1419" stroke="none" d="M 100 2500 L 200 2500 L 200 2600 L 100 2600 Z"/>
    <path id="3-26" fill="#ffea91" stroke="none" d="M 200 2500 L 300 2500 L 300 2600 L 200 2600 Z"/>
    <path id="4-26" fill="#ffea91" stroke="none" d="M 300 2500 L 400 2500 L 400 2600 L 300 2600 Z"/>
    <path id="5-26" fill="#ffffdc" stroke="none" d="M 400 2500 L 500 2500 L 500 2600 L 400 2600 Z"/>
    <path id="6-26" fill="#ffffdc" stroke="none" d="M 500 2500 L 600 2500 L 600 2600 L 500 2600 Z"/>
    <path id="7-26" fill="#ffffdc" stroke="none" d="M 600 2500 L 700 2500 L 700 2600 L 600 2600 Z"/>
    <path id="8-26" fill="#ffffdc" stroke="none" d="M 700 2500 L 800 2500 L 800 2600 L 700 2600 Z"/>
    <path id="9-26" fill="#ffffdc" stroke="none" d="M 800 2500 L 900 2500 L 900 2600 L 800 2600 Z"/>
    <path id="10-26" fill="#ffffdc" stroke="none" d="M 900 2500 L 1000 2500 L 1000 2600 L 900 2600 Z"/>
    <path id="11-26" fill="#ffffdc" stroke="none" d="M 1000 2500 L 1100 2500 L 1100 2600 L 1000 2600 Z"/>
    <path id="12-26" fill="#ffffdc" stroke="none" d="M 1100 2500 L 1200 2500 L 1200 2600 L 1100 2600 Z"/>
    <path id="13-26" fill="#ffea91" stroke="none" d="M 1200 2500 L 1300 2500 L 1300 2600 L 1200 2600 Z"/>
    <path id="14-26" fill="#f88d32" stroke="none" d="M 1300 2500 L 1400 2500 L 1400 2600 L 1300 2600 Z"/>
    <path id="15-26" fill="#30120b" stroke="none" d="M 1400 2500 L 1500 2500 L 1500 2600 L 1400 2600 Z"/>
    <path id="16-26" fill="#ffd750" stroke="none" d="M 1500 2500 L 1600 2500 L 1600 2600 L 1500 2600 Z"/>
    <path id="17-26" fill="#f5771f" stroke="none" d="M 1600 2500 L 1700 2500 L 1700 2600 L 1600 2600 Z"/>
    <path id="18-26" fill="#cd4a13" stroke="none" d="M 1700 2500 L 1800 2500 L 1800 2600 L 1700 2600 Z"/>
    <path id="19-26" fill="#cd4a13" stroke="none" d="M 1800 2500 L 1900 2500 L 1900 2600 L 1800 2600 Z"/>
    <path id="20-26" fill="#702d17" stroke="none" d="M 1900 2500 L 2000 2500 L 2000 2600 L 1900 2600 Z"/>
    <path id="21-26" fill="#1f0b0b" stroke="none" d="M 2000 2500 L 2100 2500 L 2100 2600 L 2000 2600 Z"/>
    <path id="22-26" fill="#1f0b0b" stroke="none" d="M 2100 2500 L 2200 2500 L 2200 2600 L 2100 2600 Z"/>
    <path id="2-27" fill="#4e1419" stroke="none" d="M 100 2600 L 200 2600 L 200 2700 L 100 2700 Z"/>
    <path id="3-27" fill="#874427" stroke="none" d="M 200 2600 L 300 2600 L 300 2700 L 200 2700 Z"/>
    <path id="4-27" fill="#f88d32" stroke="none" d="M 300 2600 L 400 2600 L 400 2700 L 300 2700 Z"/>
    <path id="5-27" fill="#ffea91" stroke="none" d="M 400 2600 L 500 2600 L 500 2700 L 400 2700 Z"/>
    <path id="6-27" fill="#ffffdc" stroke="none" d="M 500 2600 L 600 2600 L 600 2700 L 500 2700 Z"/>
    <path id="7-27" fill="#ffffdc" stroke="none" d="M 600 2600 L 700 2600 L 700 2700 L 600 2700 Z"/>
    <path id="8-27" fill="#ffffdc" stroke="none" d="M 700 2600 L 800 2600 L 800 2700 L 700 2700 Z"/>
    <path id="9-27" fill="#ffffdc" stroke="none" d="M 800 2600 L 900 2600 L 900 2700 L 800 2700 Z"/>
    <path id="10-27" fill="#ffffdc" stroke="none" d="M 900 2600 L 1000 2600 L 1000 2700 L 900 2700 Z"/>
    <path id="11-27" fill="#ffea91" stroke="none" d="M 1000 2600 L 1100 2600 L 1100 2700 L 1000 2700 Z"/>
    <path id="12-27" fill="#ffea91" stroke="none" d="M 1100 2600 L 1200 2600 L 1200 2700 L 1100 2700 Z"/>
    <path id="13-27" fill="#f88d32" stroke="none" d="M 1200 2600 L 1300 2600 L 1300 2700 L 1200 2700 Z"/>
    <path id="14-27" fill="#874427" stroke="none" d="M 1300 2600 L 1400 2600 L 1400 2700 L 1300 2700 Z"/>
    <path id="15-27" fill="#30120b" stroke="none" d="M 1400 2600 L 1500 2600 L 1500 2700 L 1400 2700 Z"/>
    <path id="16-27" fill="#f5771f" stroke="none" d="M 1500 2600 L 1600 2600 L 1600 2700 L 1500 2700 Z"/>
    <path id="17-27" fill="#cd4a13" stroke="none" d="M 1600 2600 L 1700 2600 L 1700 2700 L 1600 2700 Z"/>
    <path id="18-27" fill="#702d17" stroke="none" d="M 1700 2600 L 1800 2600 L 1800 2700 L 1700 2700 Z"/>
    <path id="19-27" fill="#702d17" stroke="none" d="M 1800 2600 L 1900 2600 L 1900 2700 L 1800 2700 Z"/>
    <path id="20-27" fill="#1f0b0b" stroke="none" d="M 1900 2600 L 2000 2600 L 2000 2700 L 1900 2700 Z"/>
    <path id="3-28" fill="#4e1419" stroke="none" d="M 200 2700 L 300 2700 L 300 2800 L 200 2800 Z"/>
    <path id="4-28" fill="#874427" stroke="none" d="M 300 2700 L 400 2700 L 400 2800 L 300 2800 Z"/>
    <path id="5-28" fill="#f88d32" stroke="none" d="M 400 2700 L 500 2700 L 500 2800 L 400 2800 Z"/>
    <path id="6-28" fill="#ffea91" stroke="none" d="M 500 2700 L 600 2700 L 600 2800 L 500 2800 Z"/>
    <path id="7-28" fill="#ffea91" stroke="none" d="M 600 2700 L 700 2700 L 700 2800 L 600 2800 Z"/>
    <path id="8-28" fill="#ffea91" stroke="none" d="M 700 2700 L 800 2700 L 800 2800 L 700 2800 Z"/>
    <path id="9-28" fill="#ffea91" stroke="none" d="M 800 2700 L 900 2700 L 900 2800 L 800 2800 Z"/>
    <path id="10-28" fill="#ffea91" stroke="none" d="M 900 2700 L 1000 2700 L 1000 2800 L 900 2800 Z"/>
    <path id="11-28" fill="#f88d32" stroke="none" d="M 1000 2700 L 1100 2700 L 1100 2800 L 1000 2800 Z"/>
    <path id="12-28" fill="#874427" stroke="none" d="M 1100 2700 L 1200 2700 L 1200 2800 L 1100 2800 Z"/>
    <path id="13-28" fill="#4e1419" stroke="none" d="M 1200 2700 L 1300 2700 L 1300 2800 L 1200 2800 Z"/>
    <path id="14-28" fill="#30120d" stroke="none" d="M 1300 2700 L 1400 2700 L 1400 2800 L 1300 2800 Z"/>
    <path id="15-28" fill="#f5771f" stroke="none" d="M 1400 2700 L 1500 2700 L 1500 2800 L 1400 2800 Z"/>
    <path id="16-28" fill="#cd4a13" stroke="none" d="M 1500 2700 L 1600 2700 L 1600 2800 L 1500 2800 Z"/>
    <path id="17-28" fill="#702d17" stroke="none" d="M 1600 2700 L 1700 2700 L 1700 2800 L 1600 2800 Z"/>
    <path id="18-28" fill="#1f0b0b" stroke="none" d="M 1700 2700 L 1800 2700 L 1800 2800 L 1700 2800 Z"/>
    <path id="19-28" fill="#1f0b0b" stroke="none" d="M 1800 2700 L 1900 2700 L 1900 2800 L 1800 2800 Z"/>
    <path id="4-29" fill="#4e1419" stroke="none" d="M 300 2800 L 400 2800 L 400 2900 L 300 2900 Z"/>
    <path id="5-29" fill="#4e1419" stroke="none" d="M 400 2800 L 500 2800 L 500 2900 L 400 2900 Z"/>
    <path id="6-29" fill="#874427" stroke="none" d="M 500 2800 L 600 2800 L 600 2900 L 500 2900 Z"/>
    <path id="7-29" fill="#f88d32" stroke="none" d="M 600 2800 L 700 2800 L 700 2900 L 600 2900 Z"/>
    <path id="8-29" fill="#ffbf53" stroke="none" d="M 700 2800 L 800 2800 L 800 2900 L 700 2900 Z"/>
    <path id="9-29" fill="#f88d32" stroke="none" d="M 800 2800 L 900 2800 L 900 2900 L 800 2900 Z"/>
    <path id="10-29" fill="#f88d32" stroke="none" d="M 900 2800 L 1000 2800 L 1000 2900 L 900 2900 Z"/>
    <path id="11-29" fill="#874427" stroke="none" d="M 1000 2800 L 1100 2800 L 1100 2900 L 1000 2900 Z"/>
    <path id="12-29" fill="#4e1419" stroke="none" d="M 1100 2800 L 1200 2800 L 1200 2900 L 1100 2900 Z"/>
    <path id="13-29" fill="#30120d" stroke="none" d="M 1200 2800 L 1300 2800 L 1300 2900 L 1200 2900 Z"/>
    <path id="14-29" fill="#cd4a13" stroke="none" d="M 1300 2800 L 1400 2800 L 1400 2900 L 1300 2900 Z"/>
    <path id="15-29" fill="#cd4a13" stroke="none" d="M 1400 2800 L 1500 2800 L 1500 2900 L 1400 2900 Z"/>
    <path id="16-29" fill="#1f0b0b" stroke="none" d="M 1500 2800 L 1600 2800 L 1600 2900 L 1500 2900 Z"/>
    <path id="17-29" fill="#1f0b0b" stroke="none" d="M 1600 2800 L 1700 2800 L 1700 2900 L 1600 2900 Z"/>
    <path id="6-30" fill="#4e1419" stroke="none" d="M 500 2900 L 600 2900 L 600 3000 L 500 3000 Z"/>
    <path id="7-30" fill="#4e1419" stroke="none" d="M 600 2900 L 700 2900 L 700 3000 L 600 3000 Z"/>
    <path id="8-30" fill="#4e1419" stroke="none" d="M 700 2900 L 800 2900 L 800 3000 L 700 3000 Z"/>
    <path id="9-30" fill="#4e1419" stroke="none" d="M 800 2900 L 900 2900 L 900 3000 L 800 3000 Z"/>
    <path id="10-30" fill="#4e1419" stroke="none" d="M 900 2900 L 1000 2900 L 1000 3000 L 900 3000 Z"/>
    <path id="11-30" fill="#1f0b0b" stroke="none" d="M 1000 2900 L 1100 2900 L 1100 3000 L 1000 3000 Z"/>
    <path id="12-30" fill="#1f0b0b" stroke="none" d="M 1100 2900 L 1200 2900 L 1200 3000 L 1100 3000 Z"/>
    <path id="13-30" fill="#1f0b0b" stroke="none" d="M 1200 2900 L 1300 2900 L 1300 3000 L 1200 3000 Z"/>
    <path id="14-30" fill="#1f0b0b" stroke="none" d="M 1300 2900 L 1400 2900 L 1400 3000 L 1300 3000 Z"/>
    <path id="15-30" fill="#1f0b0b" stroke="none" d="M 1400 2900 L 1500 2900 L 1500 3000 L 1400 3000 Z"/>
</svg>
